<?xml version="1.0" encoding="utf-8"?>
<!-- Generator: Adobe Illustrator 25.2.1, SVG Export Plug-In . SVG Version: 6.00 Build 0)  -->
<svg version="1.1" id="Camada_1" xmlns="http://www.w3.org/2000/svg" xmlns:xlink="http://www.w3.org/1999/xlink" x="0px" y="0px"
	 viewBox="0 0 1631.36 733.73" style="enable-background:new 0 0 1631.36 733.73;" xml:space="preserve">
<style type="text/css">
	.st0{fill:#EBF2F9;}
	.st1{fill:#82B378;}
	.st2{fill:#A9D2A0;}
	.st3{fill:#F2A450;}
	.st4{fill:#D16E25;}
	.st5{fill:#E78B37;}
	.st6{opacity:0.4;fill:#C45117;}
	.st7{fill:#DF822E;}
	.st8{fill:#B6463D;}
	.st9{fill:#F7B17F;}
	.st10{fill:#C75548;}
	.st11{fill:#AB423F;}
	.st12{fill:#709AD1;}
	.st13{fill:#4D73B7;}
	.st14{fill:#E2905A;}
	.st15{fill:#A5C4E8;}
	.st16{fill:#F09B61;}
	.st17{fill:#243862;}
	.st18{fill:#385EA5;}
	.st19{fill:#476BA6;}
	.st20{fill:#2C488C;}
	.st21{fill:#19365E;}
	.st22{fill:#B64D41;}
	.st23{fill:#D6716C;}
	.st24{fill:#B5C9E9;}
	.st25{fill:#D3E9FA;}
	.st26{fill:#B2CBEC;}
</style>
<g>
	<path class="st0" d="M1613.4,648.27c-23.18,52.67-68.29,75.92-111.42,85.45H235.09C115.5,689.05,51.86,364.14,229.2,285.1
		c97.18-43.31,164.12-50.83,183.02-119.09c79.46-287.06,364.36-108.04,469.8-138.17c374.99-107.18,318.73,417.99,552.39,370.38
		C1541.64,376.37,1681.46,493.63,1613.4,648.27z"/>
	<g>
		<g>
			<path class="st1" d="M964.08,441.39c0,0-50.12,37.27-59.89,35.01c-9.77-2.26,36.63-40.23,36.63-40.23
				c-17.46-8.4-71.74-3.13-71.74-3.13s-18.08,58.31-27,53.71c-8.92-4.6,18.64-50.81,18.64-50.81c-19.45-1.17-43.3,13.27-43.3,13.27
				c-32.66,25.79,2.15,66.39,2.15,66.39s-6.7,20.07-27.32,38.35c0,0-29.45,21.78-31.5,60.7l5.35,0.48c0,0,8.48-36.25,23.88-53.39
				c0.6-0.62,1.46-1.51,2.53-2.58c0,0,0,0,0,0c2.52-2.33,4.28-4.08,5.46-5.38c7.66-7.36,18.25-16.74,23.35-17.65
				c0,0-0.26-0.94-0.22-2.57c0.07,0.82,0.14,1.67,0.22,2.57c1.75,20.52,41.56,38.44,66.05,42.13c24.49,3.68,16.92-6.38,8.48-21.31
				c-8.44-14.93-35.14-21.61-41.24-28.48c-6.09-6.87,6.5-6.89,21.26-0.15c14.76,6.74,16.78,24.71,40.45,36.05
				c23.67,11.34,59.29-27.94,59.29-27.94c-18.87-0.96-45.81-21.45-44.83-27.71c0.97-6.27,45.73,10.82,53.38,11.63
				c7.65,0.82,25.06-8.7,27.75-39.52C1014.6,449.99,964.08,441.39,964.08,441.39z"/>
			<g>
				<path class="st2" d="M697.89,464.53c0,0,55.36-31,29.53-73.07c0,0-20.67-25.83-42.81-32.48c0,0,11.81,62.74,0,64.22
					c-11.81,1.48-8.12-70.86-8.12-70.86s-58.31-28.05-81.19-25.83c0,0,36.17,61.26,24.36,59.79s-52.41-63.48-52.41-63.48
					s-59.79-11.07-69.38,24.36c-9.6,35.43,5.9,53.14,14.76,55.36c8.86,2.21,65.69,1.48,64.22,8.86
					c-1.48,7.38-39.86,19.19-61.26,12.55c0,0,23.62,58.31,54.62,55.36c31-2.95,40.6-22.14,59.79-23.62
					c19.19-1.48,33.22,3.69,23.62,8.86c-9.6,5.17-42.07,1.69-57.57,14.87c-15.5,13.18-28.05,21.3,0.74,27.2
					c28.79,5.9,80.46,2.21,90.79-19.93C697.89,464.53,697.89,464.53,697.89,464.53z"/>
				<path class="st1" d="M712.65,518.42c-15.5-28.79-14.76-53.88-14.76-53.88c-17.72-56.1-172.72-106.29-172.72-106.29
					c197.08,79.72,162.39,128.43,162.39,128.43c5.31,3.1,13.27,17.87,18.8,29.21c0.79,1.93,2.03,4.6,3.89,8.22v0
					c0.75,1.64,1.35,2.98,1.76,3.91c10.15,25.39,4.77,69.23,4.77,69.23l6.15,1.65C736.56,554.72,712.65,518.42,712.65,518.42z"/>
			</g>
			<g>
				<path class="st2" d="M785.96,421.78c0,0-72.97-40.87-38.92-96.33c0,0,27.24-34.05,56.43-42.81c0,0-15.57,82.7,0,84.65
					c15.57,1.95,10.7-93.41,10.7-93.41s76.87-36.97,107.03-34.05c0,0-47.68,80.76-32.11,78.81c15.57-1.95,69.08-83.68,69.08-83.68
					s78.81-14.6,91.46,32.11c12.65,46.7-7.78,70.06-19.46,72.97c-11.68,2.92-86.6,1.95-84.65,11.68
					c1.95,9.73,52.54,25.3,80.76,16.54c0,0-31.14,76.87-72,72.97c-40.87-3.89-53.51-29.19-78.81-31.14
					c-25.3-1.95-43.78,4.87-31.14,11.68c12.65,6.81,55.46,2.23,75.89,19.6c20.43,17.37,36.97,28.07-0.97,35.86
					c-37.95,7.78-106.06,2.92-119.68-26.27C785.96,421.78,785.96,421.78,785.96,421.78z"/>
				<path class="st1" d="M1013.64,281.67c0,0-204.33,66.16-227.68,140.11c0,0,0.97,33.08-19.46,71.03c0,0-31.51,47.85-13.55,106.1
					l8.11-2.18c0,0-7.09-57.79,6.29-91.26c0.55-1.23,1.34-3,2.33-5.16c2.44-4.78,4.08-8.29,5.12-10.84
					c7.29-14.94,17.78-34.42,24.78-38.5C799.59,450.97,753.86,386.75,1013.64,281.67z"/>
			</g>
		</g>
		<path class="st3" d="M664.31,414.89c0,0,120.77-34.5,151.11-1.68c26.57,28.75,98.64,142.56,102.44,209.93
			c3.69,65.45-65.6,108.49-136.87,108.49H654.41L664.31,414.89z"/>
		<path class="st4" d="M580.72,448.44c0,0,170.76-77.57,203.1-26.9c17.17,26.91,64.43,134.24,67.92,201.61
			c3.39,65.45-60.32,108.49-125.86,108.49H609.47L580.72,448.44z"/>
		<path class="st5" d="M244.04,209.8c0,0,212.4-5.75,293.48-5.57c41.71,0.09,40.68,31.67,60.72,68.25
			c40.14,73.27,106.78,199.29,101.48,218.98c-7.55,28.04-291.87,47.44-312,40.97C367.58,525.97,244.04,209.8,244.04,209.8z"/>
		<path class="st6" d="M410.35,266.59c0,0,2.87-41.69-7.19-38.1c-10.06,3.59-74.03,61.82-63.97,199.1l29.47,25.16l224.98-37.38
			L410.35,266.59z"/>
		<path class="st3" d="M696.34,435.55l-75.77,37.43c0,0-64.93-238.74-69.25-256.95c-1.92-8.11-7.84-11.05-13.81-11.8
			c10.5-0.96,18.14-1.03,18.14-1.03c20.67,0,39.04,13.17,45.68,32.74c14.47,42.69,41.11,121.41,68.1,201.59
			c7.06-2.83,15.46-6.07,24.73-9.4L696.34,435.55z"/>
		<path class="st7" d="M544.68,448.48c0,0,244.88-21.69,275.07,7.23c14.02,13.42,21.89,74.21,26.3,135.49
			c5.5,76.44-56.45,141.84-132.65,140.75l-265.47,0.12L544.68,448.48z"/>
		<g>
			<path class="st8" d="M453.02,153.02c-7.01-1.57-14.29,0.24-19.21,2.07c0.88-1.73,3.27-2.98,3.27-2.98
				c-3.25,0.49-9.24,5.68-9.24,5.68c-48.29-3.45-35.65,62.23-30.23,76.74c5.41,14.5,10.72,31.48-6.8,51.32
				c-34.47,39.04,15.24,73.64,15.24,73.64c0.39,0.09,29.86,27.09,29.86,27.09c-4.74-11.61,31.12-91.46,54.11-119.12
				c3.85-12.44,0.78-31.4,0.53-32.89c3.2,14.8,3.2,23.65,2.39,28.88C510.44,233.61,471.61,157.19,453.02,153.02z"/>
			<path class="st9" d="M638.2,267.66c0.72-1.08,6.83-19.77,13.3-19.41c6.47,0.36,16.53,1.44,19.05,0.72
				c2.52-0.72,10.95-7.09,12.4-5.57c3.59,3.77-4.49,15.45-10.24,17.25c-5.75,1.8-15.09-0.9-17.25,1.26c-2.16,2.16-1.8,9.88-1.8,9.88
				L638.2,267.66z"/>
			<g>
				<path class="st9" d="M809.25,681.3c-0.7,7.63,9.91,9.48,22.21,10.09c12.3,0.61,8.58,3.13,25.43,6.18
					c16.85,3.05,23.6-1.56,24.82-3.84c1.09-2.02-6.75-5.18-15.1-8.75c-1.05-0.45-2.1-0.91-3.15-1.37
					c-9.4-4.13-14.67-12.56-21.99-20.37c-6.94-7.4-13.53-31.09-13.53-31.09l-22.9-4.89c0,0,6.43,21.33,8.66,30.43
					c1.31,5.35-0.62,11.34-2.34,15.9C810.43,676.08,809.5,678.61,809.25,681.3z"/>
				<path class="st10" d="M831.46,691.39c12.3,0.61,8.58,3.13,25.43,6.18c16.85,3.05,23.6-1.56,24.82-3.84
					c1.09-2.02-6.75-5.18-15.1-8.75l-0.13,0.14c0,0-11.85,4.02-25.52,0.3c-11.15-3.03-21.92-9.69-29.6-11.84
					c-0.93,2.48-1.86,5.02-2.11,7.7C808.55,688.93,819.16,690.78,831.46,691.39z"/>
			</g>
			<path class="st11" d="M581.24,409.78c0,0,152.15-11.45,180.8,6.63c28.64,18.08,74.59,228.65,74.59,228.65s-2.84,2.27-9.17,2.96
				c-5.89,0.64-18.86-2.83-18.86-2.83s-66.02-94.22-70.67-117.95c-4.65-23.74-3.52-44.91-14.1-45.48
				c-10.59-0.57-142.6,16.05-162.56-19.13c-19.97-35.18-3.46-70-3.46-70L581.24,409.78z"/>
			<path class="st12" d="M653.39,290.25c-10.34,26.19-35.33,68.88-41.78,70.5c-5.44,1.36-32.04-4.71-53.66-12.09
				c-12.65-4.32-23.58-9.08-27.57-13.07c-10.78-10.78-46.27-74.12-46.27-74.12s33.33-4.22,49.15,5.12
				c15.81,9.34,53.91,52.47,59.66,51.03c5.75-1.44,33.06-49.6,43.85-53.91c0,0,16.53-3.59,20.84,7.91
				C658.69,274.51,656.87,281.44,653.39,290.25z"/>
			<g>
				<path class="st9" d="M751.03,705.74c-0.7,7.63,9.91,9.48,22.21,10.09c12.3,0.61,8.58,3.13,25.43,6.18
					c16.85,3.05,23.6-1.56,24.82-3.84c1.09-2.02-6.75-5.18-15.1-8.75c-1.05-0.45-2.1-0.91-3.15-1.37
					c-9.4-4.13-14.67-12.56-21.99-20.37c-6.94-7.4-13.53-31.09-13.53-31.09l-22.9-4.89c0,0,6.43,21.33,8.66,30.43
					c1.31,5.35-0.62,11.34-2.34,15.9C752.21,700.52,751.27,703.05,751.03,705.74z"/>
				<path class="st10" d="M773.24,715.83c12.3,0.61,8.58,3.13,25.43,6.18c16.85,3.05,23.6-1.56,24.82-3.84
					c1.09-2.02-6.75-5.18-15.1-8.75l-0.13,0.14c0,0-11.85,4.02-25.52,0.3c-11.15-3.03-21.92-9.69-29.6-11.84
					c-0.93,2.48-1.86,5.02-2.11,7.7C750.33,713.36,760.94,715.22,773.24,715.83z"/>
			</g>
			<path class="st13" d="M653.39,290.25c-10.34,26.19-35.33,68.88-41.78,70.5c-5.44,1.36-32.04-4.71-53.66-12.09
				c-8.95-7.63-14.44-14.23-15.34-15.58c0.71,0.27,51.1,19.37,61.09,15.09C612.76,344.29,638.39,300.55,653.39,290.25z"/>
			<path class="st9" d="M488.61,268.92c0.16,0.02-11.64,11.59-23.07,11.92c-10.75,0.32-21.16-10.56-21.04-10.63
				c3.95-2.12,3.4-8.26-4.27-33.05l2.01-0.21l33.88-3.43c0,0,2.34,10.28,5.21,19.75C483.74,261.23,486.53,268.62,488.61,268.92z"/>
			<path class="st14" d="M476.12,233.52c0,0,2.34,10.28,5.21,19.75c-18.03,4.96-32.46-8.47-39.09-16.32L476.12,233.52z"/>
			<path class="st10" d="M551.44,419.21c0,0,135.16,6.4,163.08,25.58c27.92,19.18,65.63,231.38,65.63,231.38s-2.92,2.16-9.28,2.6
				c-5.91,0.41-18.74-3.56-18.74-3.56s-62.31-96.72-66.03-120.61c-3.72-23.9-1.76-45.02-12.32-46
				c-10.56-0.98-143.11,10.49-161.7-25.44C493.5,447.23,551.44,419.21,551.44,419.21z"/>
			<path class="st8" d="M437.88,234.48c0,0-13.89-11.94-20-23.91c-4.36-8.55-9.99-43.44,25.14-48.9c0,0,10.07-2.02,21.15,1.38
				c8.81,2.7,22.61,10.14,19.75,42.97l-0.05,10.81L437.88,234.48z"/>
			<path class="st12" d="M552.19,430.7c-1.19,0.01-2.85-0.07-4.81-0.22c-7.9-0.6-20.49-2.29-24.9-3.61
				c-37.19-11.11-72.92-24.82-88.14-72.97c-1.84-5.82-3.38-12.15-4.59-19.03l5.8-22.11l11.31-46.67c0,0,13.92,7.44,26.85,4.57
				c6.62-1.47,10.39-9.19,10.39-9.19s69.99,27.4,93.71,84.18c23.72,56.78,31.86,48.16,39.05,60.38
				C624.06,418.25,592.2,430.47,552.19,430.7z"/>
			<path class="st9" d="M484.83,240.66c0,0-42.08,13.61-50.15-12.72c-8.07-26.34-18.94-42.32,7.58-52.12
				c26.53-9.8,34.85-1.36,39.68,6.77C486.77,190.73,495.57,236.44,484.83,240.66z"/>
			<path class="st8" d="M461.32,169.29c0,0-2.14,34.44-18.52,44.44c-16.38,10-25.54,7.59-25.54,7.59s10.32-14.99,7.38-34.76
				C424.65,186.56,448.09,157.25,461.32,169.29z"/>
			<path class="st8" d="M459.22,172.68c0,0,10.76,4.26,14.91,10.32c4.16,6.06,9.32,19.59,13.2,17.89c0,0,2.31-23.67-11.12-32.56
				C461.97,158.9,459.22,172.68,459.22,172.68z"/>
			<path class="st13" d="M547.38,430.48c-7.9-0.6-20.49-2.29-24.9-3.61c-37.19-11.11-72.92-24.82-88.14-72.97
				c-0.06-0.35-0.12-0.7-0.19-1.06l5.16-4.06c10.55-8.3,24.78-10.2,37.15-4.98C505.85,356.2,546.2,378.69,547.38,430.48z"/>
			<path class="st12" d="M446.87,266.09c0,0-43.47,6.53-50.66,33.81c-7.19,27.28-13.58,116.4-7.11,123.44
				c6.47,7.04,25.8-1.12,30.11-4.65c4.31-3.52,26.59-94.16,26.59-94.16S456.71,283.58,446.87,266.09z"/>
			<path class="st9" d="M513.05,391.35c0,0,25.01-4.84,27.83-3.63c2.82,1.21,18.55,15.33,16.94,18.15
				c-1.61,2.82-8.07,4.84-15.33,2.42c-7.26-2.42-22.99-3.63-25.81-7.26C513.86,397.4,513.05,391.35,513.05,391.35z"/>
			<path class="st12" d="M519.78,387.86c0,0-97.6-1.61-120.99,13.71c0,0-13.71,14.12-9.68,21.78c4.03,7.66,16.54,6.45,22.18,6.05
				c5.65-0.4,104.46-22.99,104.46-22.99S527.04,397.94,519.78,387.86z"/>
		</g>
		<path class="st3" d="M436.7,414.89c0,0,111.07-34.5,138.96-1.68c24.44,28.75,90.71,142.56,94.2,209.93
			c3.39,65.45-60.32,108.49-125.86,108.49H427.6L436.7,414.89z"/>
		<path class="st3" d="M603.74,623.14c-3.49-67.36-50.75-174.7-67.92-201.61c-25.05-39.25-133.16-1.55-180.62,17.43
			c-26.99-80.18-53.64-158.9-68.1-201.59c-6.63-19.58-25.01-32.74-45.68-32.74c0,0-77.17-11.4-89.12,91.42
			c-38.23,329.11-7.51,435.24,129.62,436.06c17.2,0.1,50.81-0.2,79.54-0.53l0,0.05h116.41C543.42,731.63,607.13,688.6,603.74,623.14
			z"/>
		<path class="st4" d="M603.75,622.93c-3.49-67.56-50.75-175.21-67.92-202.19c-21.33-33.51-102.84-11.1-155.88,8.05
			c-9.27,3.35-17.67,6.6-24.73,9.43c-26.99-80.41-53.64-159.36-68.1-202.18c-6.63-19.63-25.01-32.84-45.68-32.84
			c0,0-7.64,0.07-18.14,1.03c-0.01,0-0.01,0-0.01,0c-16.92,1.54-41.24,5.39-52.9,14.96c-7.91,6.49-13.34,34.96-18.06,75.69
			c-11.15,96.23-16.43,173.46-14.93,234.59c0.77,31.36,3.33,58.48,7.8,81.77c3.13,16.31,7.19,30.74,12.24,43.43
			c21.89,55.01,62.22,77.17,124.51,77.54c7.24,0.04,17.39,0.01,28.86-0.06c15.78-0.1,34.05-0.29,50.68-0.48l0.01,0.05h116.41
			C543.42,731.74,607.14,688.57,603.75,622.93z"/>
		<path class="st3" d="M353.92,433.72c-17.52,6.88-36.93,14.5-52.64,20.67c-15.36-56.5-60.62-223.26-64.2-238.36
			c-1.92-8.11-7.84-11.05-13.81-11.8c10.5-0.96,18.14-1.03,18.14-1.03c20.67,0,39.04,13.17,45.68,32.74
			C301.34,277.96,327.37,354.87,353.92,433.72z"/>
		<path class="st6" d="M389.68,487.33c-8.21-24.6-59.35-16.91-59.35-16.91s-34.72,43.05-44.83,44.08
			c-10.1,1.03,20.84-41.51,20.84-41.51c-19.57-1.54-69.46,17.93-69.46,17.93s3.16,50.23-6.94,49.21c-10.1-1.03,0-44.59,0-44.59
			c-18.94,4.61-36.62,22.55-36.62,22.55c-22.1,29.21,25.26,50.74,25.26,50.74s0.63,17.42-12.63,37.41c0,0-16.67,20.55-11.32,47.12
			h-14.67c2.81-19.13-8.96-33.63-8.96-33.63c-10.06-15.17-9.57-28.39-9.57-28.39s35.92-16.33,19.16-38.49
			c0,0-13.41-13.61-27.78-17.11c0,0,7.66,33.04,0,33.83c-7.66,0.78-5.27-37.33-5.27-37.33s-4.1-1.6-10.15-3.72
			c0.77,31.27,3.33,58.31,7.8,81.53c4.44-1.78,7.85-4.11,9.54-7.05c0.29-0.51,0.57-0.99,0.83-1.46c-0.4,0.96-0.83,1.46-0.83,1.46
			c3.44,1.63,8.61,9.42,12.2,15.38c0.51,1.02,1.32,2.42,2.52,4.32c0.49,0.87,0.88,1.58,1.15,2.08c4.14,8.4,4.3,20.64,3.85,28.57
			h-53.26v2.31h3.1c1.14,30.63,24.8,56.65,57.99,67.53h-47.87c-6.33,0-11.45,4.16-11.45,9.29h188.08c0-0.64-0.08-1.26-0.23-1.87
			c-1.06-4.23-5.68-7.42-11.21-7.42H251.7c33.19-10.88,56.85-36.9,57.99-67.53h2.16v-2.31h-98.87c2.29-4.07,5.07-8.05,8.35-10.95
			c0.38-0.32,0.88-0.73,1.5-1.24c1.62-1.21,2.75-2.13,3.51-2.81c4.97-3.88,11.86-8.83,15.17-9.31c0,0-0.17-0.5-0.14-1.36
			c0.04,0.44,0.09,0.88,0.14,1.36c1.14,10.8,26.97,20.25,42.86,22.19c15.89,1.94,10.98-3.36,5.51-11.23
			c-5.48-7.86-22.81-11.38-26.76-15c-3.95-3.62,4.22-3.63,13.8-0.08c9.57,3.55,10.88,13.02,26.24,18.98
			c15.36,5.97,38.48-14.71,38.48-14.71c-12.24-0.51-29.72-11.3-29.09-14.6c0.63-3.31,29.67,5.69,34.64,6.12
			c4.97,0.43,16.26-4.58,18.01-20.82c1.75-16.23-31.03-20.76-31.03-20.76s-7.56,4.56-16.1,9.16c-1.68-1.78-4.42-3.74-7.62-5.93
			c2.82-2.03,5.35-3.77,6.93-4.84c3.16,0.7,6.6,1.23,10.44,1.53c26.52,2.05,46.72-38.44,46.72-38.44
			c-18.31,4.61-51.14-3.59-52.41-8.71c-1.27-5.12,47.35-4.61,54.93-6.15C384.63,524.23,397.88,511.93,389.68,487.33z M227.41,584.19
			c-0.06-0.08-0.6-0.73-1.1-1.92C226.66,582.89,227.02,583.52,227.41,584.19z M222.65,638.44c0,0-8.7,5.23-14.76,14.92h-6.27
			c-0.78-10.18-1.08-28.34,4.89-40.45c0.35-0.65,0.86-1.58,1.51-2.72c0.79-1.26,1.45-2.35,2.01-3.3c0.55-0.94,0.98-1.74,1.32-2.41
			c4.73-7.87,11.54-18.13,16.09-20.28c1.12,1.96,2.83,3.71,4.99,5.27c-8.63,13.05,7.98,28.77,7.98,28.77
			S236.03,628.81,222.65,638.44z M292.39,573.91c-13.58-3.04-29.95-2.47-35.94-5.08c-8.21-3.59,3.79-7.18,20.2-6.15
			c11.05,0.69,18.38,6.94,30.07,11.59C302.17,573.94,297.15,573.86,292.39,573.91z"/>
		<g>
			<g>
				<path class="st1" d="M210.73,591.74c0,0-22.58-26.35-1.39-43.08c0,0,15.48-9.37,28.1-8.61c0,0-17.88,29.99-12.1,32.97
					c5.79,2.98,17.52-34.85,17.52-34.85s35.22-3.42,46.56,2.03c0,0-30.11,24.64-23.77,26.11c6.34,1.47,38.87-22.72,38.87-22.72
					s32.78,5.58,31.04,25.58c-1.75,20-13.04,26.17-18.01,25.64c-4.96-0.53-34.01-11.62-34.64-7.55
					c-0.63,4.07,16.85,17.36,29.09,17.98c0,0-23.11,25.49-38.47,18.13c-15.36-7.36-16.67-19.02-26.25-23.39
					c-9.58-4.37-17.75-4.36-13.8,0.1c3.95,4.46,21.28,8.8,26.76,18.48c5.48,9.69,10.39,16.22-5.5,13.83
					c-15.89-2.39-41.73-14.02-42.86-27.34C210.73,591.74,210.73,591.74,210.73,591.74z"/>
				<path class="st1" d="M319.44,569.71c0,0-89.04-3.43-108.71,22.03c0,0-4.35,13.02-17.73,24.88c0,0-19.11,14.13-20.44,39.39
					l3.47,0.31c0,0,5.5-23.52,15.49-34.65c0.39-0.4,0.95-0.98,1.65-1.68c1.62-1.5,2.75-2.62,3.52-3.46
					c4.97-4.78,11.86-10.88,15.18-11.47C211.86,605.06,203.23,573.51,319.44,569.71z"/>
			</g>
			<g>
				<path class="st2" d="M131.77,558.61c0,0,35.92-20.12,19.16-47.42c0,0-13.41-16.76-27.78-21.08c0,0,7.66,40.71,0,41.67
					c-7.66,0.96-5.27-45.98-5.27-45.98s-37.84-18.2-52.69-16.76c0,0,23.47,39.76,15.81,38.8c-7.66-0.96-34.01-41.19-34.01-41.19
					s-38.8-7.19-45.02,15.81c-6.23,22.99,3.83,34.49,9.58,35.92c5.75,1.44,42.63,0.96,41.67,5.75c-0.96,4.79-25.87,12.45-39.76,8.14
					c0,0,15.33,37.84,35.45,35.92c20.12-1.92,26.34-14.37,38.8-15.33c12.45-0.96,21.55,2.4,15.33,5.75
					c-6.23,3.35-27.3,1.1-37.36,9.65c-10.06,8.55-18.2,13.82,0.48,17.65s52.21,1.44,58.92-12.93
					C131.77,558.61,131.77,558.61,131.77,558.61z"/>
				<path class="st1" d="M141.35,593.57c-10.06-18.68-9.58-34.97-9.58-34.97c-11.5-36.4-112.08-68.97-112.08-68.97
					c127.89,51.73,105.38,83.34,105.38,83.34c3.45,2.01,8.61,11.6,12.2,18.95c0.51,1.25,1.32,2.98,2.52,5.34l0,0
					c0.49,1.06,0.88,1.93,1.15,2.54c6.59,16.48,3.1,44.93,3.1,44.93l3.99,1.07C156.86,617.13,141.35,593.57,141.35,593.57z"/>
			</g>
			<g>
				<path class="st2" d="M188.92,530.86c0,0-47.35-26.52-25.26-62.51c0,0,17.68-22.1,36.62-27.78c0,0-10.1,53.67,0,54.93
					c10.1,1.26,6.95-60.61,6.95-60.61s49.88-23.99,69.45-22.1c0,0-30.94,52.41-20.84,51.14c10.1-1.26,44.83-54.3,44.83-54.3
					s51.14-9.47,59.35,20.84c8.21,30.31-5.05,45.46-12.63,47.35c-7.58,1.89-56.19,1.26-54.93,7.58c1.26,6.31,34.1,16.42,52.41,10.73
					c0,0-20.2,49.88-46.72,47.35c-26.52-2.53-34.73-18.94-51.14-20.2c-16.42-1.26-28.41,3.16-20.2,7.58
					c8.21,4.42,35.99,1.45,49.25,12.72c13.26,11.27,23.99,18.22-0.63,23.27c-24.62,5.05-68.82,1.89-77.66-17.05
					C188.92,530.86,188.92,530.86,188.92,530.86z"/>
				<path class="st1" d="M336.67,439.94c0,0-132.59,42.94-147.75,90.92c0,0,0.63,21.47-12.63,46.09c0,0-20.45,31.05-8.79,68.85
					l5.26-1.41c0,0-4.6-37.5,4.08-59.22c0.35-0.8,0.87-1.95,1.51-3.35c1.58-3.1,2.65-5.38,3.32-7.03
					c4.73-9.7,11.54-22.33,16.08-24.98C197.76,549.8,168.09,508.13,336.67,439.94z"/>
			</g>
			<path class="st12" d="M94.57,635.01c0,51.23,41.53,92.76,92.76,92.76c51.23,0,92.76-41.53,92.76-92.76H94.57z"/>
			<path class="st15" d="M210.15,727.06c-3.77,0.47-7.62,0.71-11.52,0.71c-51.23,0-92.76-41.53-92.76-92.76h23.04
				C128.92,682.34,164.36,721.38,210.15,727.06z"/>
			<path class="st13" d="M269.92,721.04H104.73c-6.32,0-11.44,5.12-11.44,11.44h188.08C281.37,726.17,276.24,721.04,269.92,721.04z"
				/>
			<rect x="91.52" y="635.01" class="st13" width="190.68" height="2.85"/>
		</g>
	</g>
	<g>
		<path class="st3" d="M1318.86,444.2v92.83c0,16.31-4.61,29.5-10.3,29.5h-181.78c-5.7,0-10.3-13.19-10.3-29.5V444.2
			c0-16.31,16.07-31.41,63.19-30.89l128.9,1.39C1314.25,414.7,1318.86,427.89,1318.86,444.2z"/>
		<path class="st5" d="M1342.94,444.2v92.83c0,16.31-4.61,29.5-10.3,29.5h-181.78c-5.7,0-10.3-13.19-10.3-29.5V444.2
			c0-16.31,17.11-31.94,43.29-31.41l148.79,1.91C1338.34,414.7,1342.94,427.89,1342.94,444.2z"/>
		<path class="st3" d="M1298.12,332.86c2.48-5.47-1.24-233.97,54.47-231.24c55.71,2.74,159.71,5.47,159.71,5.47
			s47.05,4.11,18.57,116.3c-28.48,112.2-22.28,290.07-22.28,290.07h-205.52L1298.12,332.86z"/>
		<path class="st5" d="M1491.24,223.42c-3.44,13.4-6.28,27.73-8.8,42.56c-10.05,60.06-13.15,128.5-13.91,178.18
			c-0.59,41.05,0.42,69.28,0.42,69.28h-205.49l-4.94-180.61c2.43-5.44-1.26-233.97,54.45-231.21c28.48,1.42,69.61,2.76,102.95,3.85
			c4.19,0.08,8.29,0.25,12.23,0.34c25.8,0.75,44.57,1.26,44.57,1.26S1519.72,111.17,1491.24,223.42z"/>
		<path class="st4" d="M1362.17,681.78V561.25c0-5.11-4.27-9.38-9.38-9.38h-0.08c-1.68,0-3.27,0.5-4.61,1.34
			c-2.85,1.59-4.78,4.61-4.78,8.04v120.69c-0.36,0.06-0.73,0.12-1.09,0.19c-26.97,4.19-48.92,23.96-56.29,49.84h134.62
			C1412.98,705.44,1390.16,685.35,1362.17,681.78z"/>
		<path class="st6" d="M1482.28,262.37c-5.03-77.07-45.32-143-54.12-156.57l-88.29-8.73c0,0-68.06,45.03-51.31,218.33
			c8.64,89.36,45.49,30.83,79.16-46.83l-6.91,168.29c0,0,82.18,5.61,107.73,7.29c0.75-49.68,3.85-118.12,13.91-178.18
			C1482.45,264.8,1482.36,263.55,1482.28,262.37z"/>
		<path class="st3" d="M1348.1,553.21c-2.85,1.59-4.78,4.61-4.78,8.04v147.69c0,3.52,1.93,6.53,4.78,8.04
			c2.76-1.59,4.69-4.61,4.69-8.04V561.25C1352.79,557.82,1350.86,554.8,1348.1,553.21z"/>
		<path class="st3" d="M1342.23,682.13c-26.97,4.19-48.92,23.96-56.29,49.84h112.59C1391.15,706.09,1369.29,686.32,1342.23,682.13z"
			/>
		<path class="st3" d="M1511.53,523.81l-4.65,26.68c0,5.7,0.04,16.05-5.66,16.05h-320c-5.7,0-10.3-4.61-10.3-10.3v-32.42
			c0-5.7,4.61-10.3,10.3-10.3h320C1506.92,513.5,1511.53,518.11,1511.53,523.81z"/>
		<g>
			<path class="st16" d="M1126.61,712.56c0.59,2.85,1.17,5.78,1.01,8.8c-0.42,1.68-1.51,2.93-3.1,3.94l-1.51,2.85
				c-1.59,0.75-5.45,1.34-10.39,1.84l-0.08-2.35c-0.67,0-1.34,0-2.01,0.08v-0.08c-5.86,0.08-13.15,0.59-22.03,4.1
				c-0.08,0-0.17,0.08-0.25,0.08c-1.59,0.08-3.18,0.17-4.61,0.25h-21.61c-10.39-1.51-14.49-5.7-15.25-7.79
				c0-0.59,7.79-4.44,14.24-6.28c0.08,0,0.25-0.08,0.5-0.08c0.92-0.34,2.68-1.01,3.1-1.09c1.17-0.42,2.51-0.75,3.69-1.09
				c10.81-3.18,18.09-10.39,26.64-18.35c9.8-9.13,23.12-49.84,21.36-50.6l22.03,2.85c0,0-17.68,35.35-16.25,46.33
				c0.59,4.86,2.34,8.96,3.52,13.15c0.08,0.17,0.08,0.42,0.17,0.59c0.25,0.59,0.42,1.17,0.59,1.76
				C1126.44,711.89,1126.52,712.22,1126.61,712.56z"/>
			<path class="st17" d="M1403.86,406.83l-94.75-3.87c0,0-144.11,9.3-156.33,30.25l-54.35,254.19c0,0,3.01,4.06,13.22,5.81
				c5.4,0.93,17.15-1.75,17.15-1.75s70.38-89.99,79.42-146.49c7.56-47.22,10.55-52.15,36.44-51.17
				c25.89,0.98,105.32,7.24,143.06-0.07C1425.46,486.4,1403.86,406.83,1403.86,406.83z"/>
			<g>
				<path class="st18" d="M1128.03,719.01c0,0.84-0.08,1.68-0.42,2.35c-0.42,1.68-1.51,2.93-3.1,3.94c-0.17,0.17-0.33,0.25-0.5,0.34
					c0,0,0,0-0.08,0c-0.08,0.08-0.17,0.08-0.25,0.17c-2.76,1.68-6.45,1.68-11.14,1.84h-2.01c-5.86,0.08-13.15,0.59-22.03,4.1
					c-0.08,0-0.17,0.08-0.25,0.08c-0.25,0.08-0.42,0.17-0.67,0.25h-36.61c-5.03-2.01-6.03-5.19-6.53-6.37
					c-0.42-0.92,0.75-1.93,3.02-3.02c0.17-0.08,0.42-0.17,0.59-0.34c3.18-1.42,7.96-2.93,13.07-4.61c0.08,0.08,0.25,0.08,0.42,0.17
					c3.44,1.17,15.41,4.94,29.49,2.26c11.73-2.26,23.37-7.79,32.34-10.47c0.75-0.17,1.51-0.42,2.26-0.59
					c0.17-0.08,0.34-0.08,0.5-0.17c0.17,0.34,0.25,0.75,0.34,1.09C1127.28,712.89,1128.03,715.91,1128.03,719.01z"/>
				<polygon class="st18" points="1125.02,724.37 1124.51,725.29 1123,728.14 1120.91,732.08 1110.61,732.08 1110.61,729.98 
					1110.52,727.72 1110.52,726.72 1124.43,724.45 				"/>
			</g>
			<path class="st9" d="M1158.72,712.56c0.59,2.85,1.17,5.78,1.01,8.8c-0.42,1.68-1.51,2.93-3.1,3.94l-1.51,2.85
				c-1.59,0.75-5.44,1.34-10.39,1.84l-0.08-2.35c-0.67,0-1.34,0-2.01,0.08v-0.08c-5.86,0.08-13.15,0.59-22.03,4.1
				c-0.08,0-0.17,0.08-0.25,0.08c-1.59,0.08-3.18,0.17-4.61,0.25h-21.61c-10.39-1.51-14.49-5.7-15.25-7.79
				c0-0.59,7.79-4.44,14.24-6.28c0.08,0,0.25-0.08,0.5-0.08c0.92-0.34,2.68-1.01,3.1-1.09c1.17-0.42,2.51-0.75,3.69-1.09
				c10.81-3.18,18.09-10.39,26.64-18.35c9.8-9.13,23.12-49.84,21.36-50.6l22.03,2.85c0,0-17.68,35.35-16.25,46.33
				c0.59,4.86,2.35,8.96,3.52,13.15c0.08,0.17,0.08,0.42,0.17,0.59c0.25,0.59,0.42,1.17,0.59,1.76
				C1158.55,711.89,1158.64,712.22,1158.72,712.56z"/>
			<path class="st19" d="M1346.38,171.73L1339,201l-38.72,153.01c-1.48,2.31-13.81,7.18-27.45,11.76
				c-16.24,5.43-34.38,10.55-37.81,10.25c-6.28-0.51-9.76-13.63-7.97-17.33c1.16-2.44,21.87-13.43,38.06-23.28
				c9.04-5.49,16.66-10.62,18.77-13.68c3.8-5.66,13.27-57.76,20.98-95.89c3.93-19.56,7.44-35.45,9.48-39.62
				c5.16-10.88,25.24-13.81,30.68-14.38C1345.87,171.73,1346.38,171.73,1346.38,171.73z"/>
			<path class="st20" d="M1428.92,406.92l-94.75-3.87c0,0-144.11,9.31-156.34,30.25l-50.22,259.21c0,0,8.77,2.99,14.27,3.4
				c8.77,0.65,14.79-2.23,14.79-2.23s67.56-92.13,76.61-148.63c7.56-47.22,10.55-52.15,36.44-51.17
				c25.89,0.98,105.32,7.24,143.06-0.07C1450.52,486.49,1428.92,406.92,1428.92,406.92z"/>
			<g>
				<path class="st19" d="M1160.14,719.01c0,0.84-0.08,1.68-0.42,2.35c-0.42,1.68-1.51,2.93-3.1,3.94c-0.17,0.17-0.34,0.25-0.5,0.34
					c0,0,0,0-0.08,0c-0.08,0.08-0.17,0.08-0.25,0.17c-2.76,1.68-6.45,1.68-11.14,1.84h-2.01c-5.86,0.08-13.15,0.59-22.03,4.1
					c-0.08,0-0.17,0.08-0.25,0.08c-0.25,0.08-0.42,0.17-0.67,0.25h-36.61c-5.03-2.01-6.03-5.19-6.53-6.37
					c-0.42-0.92,0.75-1.93,3.02-3.02c0.17-0.08,0.42-0.17,0.59-0.34c3.18-1.42,7.96-2.93,13.07-4.61c0.08,0.08,0.25,0.08,0.42,0.17
					c3.43,1.17,15.41,4.94,29.49,2.26c11.73-2.26,23.37-7.79,32.34-10.47c0.75-0.17,1.51-0.42,2.26-0.59
					c0.17-0.08,0.33-0.08,0.5-0.17c0.17,0.34,0.25,0.75,0.34,1.09C1159.39,712.89,1160.14,715.91,1160.14,719.01z"/>
				<polygon class="st19" points="1157.13,724.37 1156.62,725.29 1155.12,728.14 1153.02,732.08 1142.72,732.08 1142.72,729.98 
					1142.63,727.72 1142.63,726.72 1156.54,724.45 				"/>
			</g>
			<path class="st21" d="M1393.77,130.59c45.44-3.45,54.33-96.72,0.27-85.36c0,0-7.58-4.95-11.32-5c0,0,2.9,1.06,4.16,2.87
				c-5.84-1.31-14.9-3.42-22.03,0.62C1291.73,85.19,1376.16,131.92,1393.77,130.59z"/>
			<path class="st9" d="M1342.5,180.24c-0.18,0.05,14.95,11.3,27.92,9.92c12.2-1.29,22.3-15.21,22.14-15.27
				c-4.79-1.79-5.11-8.82-0.27-38.03l-2.31,0.08l-38.83,1.35c0,0-1.06,11.98-2.85,23.14C1346.81,170.8,1344.8,179.59,1342.5,180.24z
				"/>
			<path class="st20" d="M1339,201l-38.72,153.01c-1.48,2.31-13.81,7.18-27.45,11.76c-1.16-2.82-2.24-6.05-3.28-9.61
				c-2.07-7.13-3.57-14.07-4.44-20.75c9.04-5.49,16.66-10.62,18.77-13.68c3.8-5.66,13.27-57.76,20.98-95.89
				c17.36-17.04,33.74-25.42,33.74-25.42L1339,201z"/>
			<path class="st16" d="M1351.15,138.29c0,0-1.06,11.98-2.85,23.14c21.15,2.82,35.39-14.58,41.68-24.49L1351.15,138.29z"/>
			<path class="st21" d="M1394.53,133.48c0,0,13.86-15.64,18.92-30.12c3.62-10.34,4.59-50.66-35.97-51.41c0,0-11.7-0.73-23.7,4.82
				c-9.55,4.42-24,14.95-15.7,51.63l1.72,12.21L1394.53,133.48z"/>
			<path class="st9" d="M1342.41,147.72c0,0,49.68,8.9,54.74-22.13c5.06-31.02,14.89-50.77-16.62-57.76
				c-31.5-6.99-39.61,3.84-43.82,13.78C1332.5,91.56,1329.61,144.6,1342.41,147.72z"/>
			<path class="st21" d="M1357.97,63.39c0,0,7.74,38.61,27.8,47.39c20.06,8.78,30.05,4.64,30.05,4.64s-13.99-15.36-13.71-38.16
				C1402.1,77.26,1371.07,47.74,1357.97,63.39z"/>
			<path class="st21" d="M1360.87,66.9c0,0-11.5,6.48-15.27,13.97c-3.76,7.5-7.52,23.58-12.17,22.26c0,0-6.26-26.41,7.55-38.53
				C1355.64,51.74,1360.87,66.9,1360.87,66.9z"/>
			<path class="st19" d="M1432.83,454c-3.95,7.08-12.53,7.65-23.31,4.54c-5.2-1.44-10.84-3.8-16.76-6.54
				c-0.54-0.34-1.17-0.61-1.73-0.87c-17.46-8.52-36.93-21.35-52.15-31.11c-31.9-20.45-34.02-8.99-43.47-20.29
				c0,0,9.72-10.22-2.75-129.61c-3.54-34.18,53.72-98.39,53.72-98.39s0.38,21.19,46.16,3.16c1.62-0.59,14.14,26.39,25.06,58.97
				c1.79,5.21,3.48,10.49,5.07,15.84c7.62,25.25,13.27,51.63,11.74,69.96c-0.37,4.35-1.09,8.31-2.3,11.59
				c-0.14,0.32-0.27,0.64-0.41,0.95C1415.99,369.97,1444.12,433.59,1432.83,454z"/>
			<g>
				<polygon class="st22" points="1275.33,304.81 1190.95,298.78 1227.08,397.16 1306.1,405.35 				"/>
				<polygon class="st23" points="1274.58,305.88 1190.2,299.85 1226.33,398.22 1305.35,406.42 				"/>
				<path class="st24" d="M1266.98,304.22c0,0,2.03-12.75-5.16-13.01c-7.19-0.26-11.39,12.19-11.39,12.19L1266.98,304.22z"/>
				<path class="st25" d="M1253.48,315.76c2.01,9.07,13.61,23.91,12.92,31.41l-53.93-0.7c0,0,0.35-3.49-11.17-28.27
					c-4.74-10.19,0.87-28.6,5.73-29.02l54.79,2.01C1261.81,291.19,1249.57,298.09,1253.48,315.76z"/>
				<polygon class="st22" points="1190.95,298.78 1190.2,299.85 1192.06,299.97 1191.9,299.31 				"/>
				<polygon class="st22" points="1305.35,406.42 1306.1,405.35 1304.67,404.25 				"/>
			</g>
			<path class="st20" d="M1432.83,454c-3.95,7.08-12.53,7.65-23.31,4.54c-5.2-1.44-10.84-3.8-16.76-6.54
				c-20.97-13.58-43.41-35.3-56.02-70.1c-28.32-78.17,80.58-134.77,80.58-134.77l5.35,2.57c7.62,25.25,13.27,51.63,11.74,69.96
				c-0.37,4.35-1.09,8.31-2.3,11.59c-0.14,0.32-0.27,0.64-0.41,0.95C1415.99,369.97,1444.12,433.59,1432.83,454z"/>
			<g>
				<g>
					
						<rect x="1320.11" y="320.69" transform="matrix(0.8154 0.579 -0.579 0.8154 446.1724 -701.0717)" class="st4" width="4.19" height="56.55"/>
				</g>
				<polygon class="st3" points="1304.13,370.8 1303.87,374.91 1307.55,373.23 				"/>
			</g>
			<path class="st9" d="M1347.8,350.93c0,0-14.77-6.13-22.26-4.41c-7.49,1.72-22.73,6.73-22.06,10.85
				c0.67,4.12,16.99,8.9,24.65,6.13c7.66-2.77,12.07,3.02,21.12,1.55C1358.3,363.59,1347.8,350.93,1347.8,350.93z"/>
			<path class="st19" d="M1392.56,174.89c0,0,46.5,7.9,52.29,20.15c5.79,12.25,1.94,140.69-1.67,154.25
				c-3.61,13.56-78.73,19.94-101.23,19.13c0,0-3.54-15.25,0.67-23.76c4.21-8.51,59.8-17.71,64.36-24.04
				c4.56-6.33-9.12-84.4-7.36-99.67C1401.41,205.68,1392.56,174.89,1392.56,174.89z"/>
			<path class="st9" d="M1210.34,355.84c0,0,15.36-1.49,13.28,4.8c-2.08,6.29-7.88,9.33-7.88,9.33S1203.87,361.42,1210.34,355.84z"
				/>
		</g>
		<path class="st3" d="M1487.45,444.2v92.83c0,16.31-4.61,29.5-10.3,29.5h-181.78c-5.7,0-10.3-13.19-10.3-29.5V444.2
			c0-16.31,14.5-32.46,64.23-29.5h127.85C1482.84,414.7,1487.45,427.89,1487.45,444.2z"/>
		<path class="st7" d="M1511.53,444.2v92.83c0,16.31-4.61,29.5-10.3,29.5h-181.78c-5.7,0-10.3-13.19-10.3-29.5V444.2
			c0-16.31,15.54-30.89,52.19-29.5l129.84-0.86C1511.6,413.83,1511.53,427.89,1511.53,444.2z"/>
	</g>
	<g>
		<path class="st13" d="M1569.46,535.22h-188.5c-4.48,0-8.15,3.67-8.15,8.15v2.92c0,4.48,3.67,8.15,8.15,8.15h86.94l4.88,149.23
			c-24.04,0.76-43.9,12.67-49.13,28.47h103.14c-5.19-15.68-24.78-27.52-48.56-28.45l4.32-149.25h86.92c4.48,0,8.15-3.67,8.15-8.15
			v-2.92C1577.61,538.89,1573.94,535.22,1569.46,535.22z"/>
		<g>
			<path class="st12" d="M1463.36,519.54c-1.2-0.74-3.54-0.45-5.23-0.1v-2.45c0-0.54-0.04-1.08-0.1-1.6h-25.39
				c-0.07,0.52-0.1,1.06-0.1,1.6v4.98c0,7.04,5.76,12.8,12.8,12.8c3.81,0,7.25-1.69,9.6-4.36l0,0c0,0,6.04-1.49,7.94-3.74
				C1464.76,524.43,1465.38,520.78,1463.36,519.54z M1462.02,524.15c-0.64,1.66-3.52,2.55-4.94,2.89c0.57-1.31,0.92-2.73,1.02-4.21
				c0.88-1.2,2.26-1.9,3.28-1.72C1462.28,521.28,1462.83,522.05,1462.02,524.15z"/>
			<path class="st26" d="M1434.62,516.99v4.98c0,7.04,5.76,12.8,12.79,12.8c0.58,0,1.16-0.04,1.72-0.12
				c-6.23-0.84-11.07-6.22-11.07-12.67v-4.98c0-0.54,0.04-1.08,0.1-1.6h-3.44C1434.65,515.92,1434.62,516.45,1434.62,516.99z"/>
			<rect x="1440.1" y="533.66" class="st12" width="10.45" height="1.56"/>
		</g>
		<g>
			<path class="st12" d="M1530.59,519.54c-1.2-0.74-3.54-0.45-5.23-0.1v-2.45c0-0.54-0.04-1.08-0.1-1.6h-25.39
				c-0.07,0.52-0.1,1.06-0.1,1.6v4.98c0,7.04,5.76,12.8,12.8,12.8c3.81,0,7.25-1.69,9.6-4.36l0,0c0,0,6.04-1.49,7.94-3.74
				C1531.99,524.43,1532.61,520.78,1530.59,519.54z M1529.25,524.15c-0.64,1.66-3.52,2.55-4.94,2.89c0.57-1.31,0.92-2.73,1.02-4.21
				c0.88-1.2,2.26-1.9,3.28-1.72C1529.51,521.28,1530.06,522.05,1529.25,524.15z"/>
			<path class="st26" d="M1501.85,516.99v4.98c0,7.04,5.76,12.8,12.79,12.8c0.58,0,1.16-0.04,1.72-0.12
				c-6.23-0.84-11.07-6.22-11.07-12.67v-4.98c0-0.54,0.04-1.08,0.1-1.6h-3.44C1501.88,515.92,1501.85,516.45,1501.85,516.99z"/>
			<rect x="1507.33" y="533.66" class="st12" width="10.45" height="1.56"/>
		</g>
	</g>
</g>
</svg>
