<?xml version="1.0" encoding="utf-8"?>
<!-- Generator: Adobe Illustrator 25.2.1, SVG Export Plug-In . SVG Version: 6.00 Build 0)  -->
<svg version="1.1" id="Camada_1" xmlns="http://www.w3.org/2000/svg" xmlns:xlink="http://www.w3.org/1999/xlink" x="0px" y="0px"
	 viewBox="0 0 1920 733.73" style="enable-background:new 0 0 1920 733.73;" xml:space="preserve">
<style type="text/css">
	.st0{fill:#9D9D9B;}
	.st1{fill:#E3E2E2;}
	.st2{font-family:'BebasNeue-Regular';}
	.st3{font-size:374.8324px;}
	.st4{font-family:'Gotham-Thin';}
	.st5{font-size:146.0393px;}
	.st6{letter-spacing:5;}
</style>
<g>
	<g>
		<path class="st0" d="M0,595.94c0,34.47,0,60.46,0,72.05c0,61.16,65.74,65.74,65.74,65.74h219.66c18.49,0,33.48-14.99,33.48-33.48
			v-38.58H65.74C65.74,661.67,0,657.1,0,595.94z"/>
		<path class="st0" d="M666.72,661.67H413.58v38.58c0,18.49,14.99,33.48,33.48,33.48h219.66c0,0,65.74-4.58,65.74-65.74
			c0-11.6,0-37.58,0-72.05C732.45,657.1,666.72,661.67,666.72,661.67z"/>
		<g>
			<path class="st1" d="M147.81,321.7c-12.33-30.33-17.98-62.96-17.98-95.7v-97.96V55.98c0,0,0.44-55.98-55.98-55.98
				C48,0,30.33,15.52,18.77,32.32C6.06,50.81,0,73.08,0,95.52v50.4c0,0,0,302.69,0,450.02c0,61.16,65.74,65.74,65.74,65.74h253.14
				v-152.3v-72.05C216.57,437.32,169.42,374.82,147.81,321.7z"/>
			<path class="st1" d="M305.79,0H186.95c-6.39,0-9.55,7.54-5.26,12.27c4.52,4.98,8.67,11.09,12.4,17.58
				c14.14,24.62,20.88,52.8,20.88,81.19v125.81c0,54.35,78.7,93.18,99.67,102.56c2.4,1.07,5.08-0.71,5.08-3.34V13.93
				C319.72,3.92,305.79,0,305.79,0z"/>
			<path class="st1" d="M713.68,32.32C702.12,15.52,684.45,0,658.59,0c-56.42,0-55.98,55.98-55.98,55.98v72.05v97.96
				c0,32.74-5.64,65.37-17.98,95.7c-21.6,53.12-68.76,115.62-171.06,115.62v72.05v152.3h253.14c0,0,65.74-4.58,65.74-65.74
				c0-147.34,0-450.02,0-450.02v-50.4C732.45,73.08,726.39,50.81,713.68,32.32z"/>
			<path class="st1" d="M417.82,339.42c20.97-9.38,99.67-48.22,99.67-102.56V111.04c0-28.39,6.74-56.57,20.88-81.19
				c3.73-6.49,7.88-12.6,12.4-17.58C555.06,7.54,551.9,0,545.51,0H426.66c0,0-13.93,3.92-13.93,13.93v322.15
				C412.74,338.71,415.42,340.49,417.82,339.42z"/>
		</g>
	</g>
	<text transform="matrix(1 0 0 1 940.9551 330.8393)" class="st1 st2 st3">SOS TDM</text>
	<text transform="matrix(1 0 0 1 1017.5605 505.6752)"><tspan x="0" y="0" class="st0 st4 st5">assisstência</tspan><tspan x="-7.23" y="133.87" class="st0 st4 st5 st6">psicológica</tspan></text>
</g>
</svg>
