<?xml version="1.0" encoding="utf-8"?>
<!-- Generator: Adobe Illustrator 25.2.1, SVG Export Plug-In . SVG Version: 6.00 Build 0)  -->
<svg version="1.1" id="Camada_1" xmlns="http://www.w3.org/2000/svg" xmlns:xlink="http://www.w3.org/1999/xlink" x="0px" y="0px"
	 viewBox="0 0 1080 1920" style="enable-background:new 0 0 1080 1920;" xml:space="preserve">
<style type="text/css">
	.st0{fill:url(#SVGID_1_);}
	.st1{fill:#9D9D9B;}
	.st2{fill:#E3E2E2;}
	.st3{font-family:'BebasNeue-Regular';}
	.st4{font-size:88.624px;}
	.st5{font-family:'Gotham-Thin';}
	.st6{font-size:34.529px;}
	.st7{letter-spacing:1;}
	.st8{fill:#EBF2F9;}
	.st9{fill:#82B378;}
	.st10{fill:#A9D2A0;}
	.st11{fill:#F2A450;}
	.st12{fill:#D16E25;}
	.st13{fill:#E78B37;}
	.st14{opacity:0.4;fill:#C45117;}
	.st15{fill:#DF822E;}
	.st16{fill:#B6463D;}
	.st17{fill:#F7B17F;}
	.st18{fill:#C75548;}
	.st19{fill:#AB423F;}
	.st20{fill:#709AD1;}
	.st21{fill:#4D73B7;}
	.st22{fill:#E2905A;}
	.st23{fill:#A5C4E8;}
	.st24{fill:#F09B61;}
	.st25{fill:#243862;}
	.st26{fill:#385EA5;}
	.st27{fill:#476BA6;}
	.st28{fill:#2C488C;}
	.st29{fill:#19365E;}
	.st30{fill:#B64D41;}
	.st31{fill:#D6716C;}
	.st32{fill:#B5C9E9;}
	.st33{fill:#D3E9FA;}
	.st34{fill:#B2CBEC;}
	.st35{fill:#293351;}
	.st36{font-family:'Gotham-Book';}
	.st37{font-size:28.947px;}
</style>
<linearGradient id="SVGID_1_" gradientUnits="userSpaceOnUse" x1="540" y1="1920" x2="540" y2="-9.094947e-13">
	<stop  offset="0" style="stop-color:#223342"/>
	<stop  offset="1" style="stop-color:#2F465B"/>
</linearGradient>
<rect class="st0" width="1080" height="1920"/>
<g>
	<g>
		<path class="st1" d="M313.02,414.26c0,8.15,0,14.29,0,17.04c0,14.46,15.54,15.54,15.54,15.54h51.93c4.37,0,7.92-3.54,7.92-7.92
			v-9.12h-59.85C328.56,429.8,313.02,428.72,313.02,414.26z"/>
		<path class="st1" d="M470.66,429.8h-59.85v9.12c0,4.37,3.54,7.92,7.92,7.92h51.93c0,0,15.54-1.08,15.54-15.54
			c0-2.74,0-8.89,0-17.04C486.2,428.72,470.66,429.8,470.66,429.8z"/>
		<g>
			<path class="st2" d="M347.97,349.41c-2.92-7.17-4.25-14.89-4.25-22.63v-23.16v-17.04c0,0,0.1-13.24-13.24-13.24
				c-6.11,0-10.29,3.67-13.02,7.64c-3.01,4.37-4.44,9.64-4.44,14.94v11.92c0,0,0,71.57,0,106.4c0,14.46,15.54,15.54,15.54,15.54
				h59.85v-36.01v-17.04C364.23,376.75,353.08,361.98,347.97,349.41z"/>
			<path class="st2" d="M385.32,273.35h-28.1c-1.51,0-2.26,1.78-1.24,2.9c1.07,1.18,2.05,2.62,2.93,4.16
				c3.34,5.82,4.94,12.48,4.94,19.2v29.75c0,12.85,18.61,22.03,23.57,24.25c0.57,0.25,1.2-0.17,1.2-0.79v-76.17
				C388.61,274.28,385.32,273.35,385.32,273.35z"/>
			<path class="st2" d="M481.76,281c-2.73-3.97-6.91-7.64-13.02-7.64c-13.34,0-13.24,13.24-13.24,13.24v17.04v23.16
				c0,7.74-1.33,15.46-4.25,22.63c-5.11,12.56-16.26,27.34-40.44,27.34v17.04v36.01h59.85c0,0,15.54-1.08,15.54-15.54
				c0-34.84,0-106.4,0-106.4v-11.92C486.2,290.63,484.77,285.37,481.76,281z"/>
			<path class="st2" d="M411.81,353.6c4.96-2.22,23.57-11.4,23.57-24.25v-29.75c0-6.71,1.59-13.37,4.94-19.2
				c0.88-1.53,1.86-2.98,2.93-4.16c1.02-1.12,0.27-2.9-1.24-2.9h-28.1c0,0-3.29,0.93-3.29,3.29v76.17
				C410.61,353.44,411.24,353.86,411.81,353.6z"/>
		</g>
	</g>
	<text transform="matrix(1 0 0 1 535.4971 351.5764)" class="st2 st3 st4">SOS TDM</text>
	<text transform="matrix(1 0 0 1 553.6094 392.9147)"><tspan x="0" y="0" class="st1 st5 st6">assisstência</tspan><tspan x="-1.71" y="31.65" class="st1 st5 st6 st7">psicológica</tspan></text>
</g>
<g>
	<path class="st8" d="M965.49,1012.06c-12.36,28.09-36.42,40.49-59.43,45.58H230.33c-63.79-23.83-97.73-197.13-3.14-239.29
		c51.83-23.1,87.54-27.11,97.62-63.52c42.38-153.11,194.34-57.62,250.58-73.7c200.01-57.17,170,222.95,294.63,197.55
		C927.21,867.03,1001.79,929.57,965.49,1012.06z"/>
	<g>
		<g>
			<path class="st9" d="M619.16,901.71c0,0-26.73,19.88-31.95,18.67c-5.21-1.21,19.54-21.46,19.54-21.46
				c-9.31-4.48-38.27-1.67-38.27-1.67s-9.64,31.1-14.4,28.65c-4.76-2.45,9.94-27.1,9.94-27.1c-10.37-0.63-23.1,7.08-23.1,7.08
				c-17.42,13.76,1.14,35.41,1.14,35.41s-3.57,10.71-14.57,20.45c0,0-15.71,11.62-16.8,32.38l2.85,0.26c0,0,4.52-19.34,12.73-28.48
				c0.32-0.33,0.78-0.8,1.35-1.38c0,0,0,0,0,0c1.34-1.24,2.28-2.18,2.91-2.87c4.09-3.93,9.74-8.93,12.46-9.41
				c0,0-0.14-0.5-0.12-1.37c0.04,0.44,0.08,0.89,0.12,1.37c0.93,10.95,22.17,20.5,35.23,22.47c13.06,1.97,9.02-3.4,4.52-11.37
				c-4.5-7.96-18.74-11.52-21.99-15.19c-3.25-3.67,3.47-3.68,11.34-0.08c7.87,3.59,8.95,13.18,21.57,19.23
				c12.63,6.05,31.62-14.9,31.62-14.9c-10.06-0.51-24.43-11.44-23.91-14.78c0.52-3.34,24.39,5.77,28.47,6.21
				c4.08,0.44,13.37-4.64,14.8-21.08C646.1,906.3,619.16,901.71,619.16,901.71z"/>
			<g>
				<path class="st10" d="M477.17,914.05c0,0,29.53-16.54,15.75-38.98c0,0-11.02-13.78-22.83-17.32c0,0,6.3,33.46,0,34.25
					c-6.3,0.79-4.33-37.8-4.33-37.8s-31.1-14.96-43.31-13.78c0,0,19.29,32.68,12.99,31.89c-6.3-0.79-27.95-33.86-27.95-33.86
					s-31.89-5.91-37.01,12.99c-5.12,18.9,3.15,28.35,7.87,29.53c4.72,1.18,35.04,0.79,34.25,4.72c-0.79,3.94-21.26,10.24-32.68,6.69
					c0,0,12.6,31.1,29.13,29.53c16.54-1.57,21.65-11.81,31.89-12.6c10.24-0.79,17.72,1.97,12.6,4.72
					c-5.12,2.76-22.44,0.9-30.71,7.93c-8.27,7.03-14.96,11.36,0.39,14.51c15.35,3.15,42.91,1.18,48.43-10.63
					C477.17,914.05,477.17,914.05,477.17,914.05z"/>
				<path class="st9" d="M485.05,942.79c-8.27-15.35-7.87-28.74-7.87-28.74c-9.45-29.92-92.13-56.69-92.13-56.69
					c105.12,42.52,86.61,68.5,86.61,68.5c2.83,1.65,7.08,9.53,10.03,15.58c0.42,1.03,1.08,2.45,2.07,4.38v0
					c0.4,0.87,0.72,1.59,0.94,2.09c5.41,13.54,2.55,36.93,2.55,36.93l3.28,0.88C497.8,962.16,485.05,942.79,485.05,942.79z"/>
			</g>
			<g>
				<path class="st10" d="M524.15,891.25c0,0-38.92-21.8-20.76-51.38c0,0,14.53-18.16,30.1-22.83c0,0-8.3,44.11,0,45.15
					c8.3,1.04,5.71-49.82,5.71-49.82s41-19.72,57.09-18.16c0,0-25.43,43.07-17.13,42.04c8.3-1.04,36.85-44.63,36.85-44.63
					s42.04-7.78,48.78,17.13c6.75,24.91-4.15,37.37-10.38,38.92c-6.23,1.56-46.19,1.04-45.15,6.23c1.04,5.19,28.02,13.49,43.07,8.82
					c0,0-16.61,41-38.4,38.92c-21.8-2.08-28.54-15.57-42.04-16.61c-13.49-1.04-23.35,2.59-16.61,6.23
					c6.75,3.63,29.58,1.19,40.48,10.46c10.9,9.27,19.72,14.97-0.52,19.13c-20.24,4.15-56.57,1.56-63.83-14.01
					C524.15,891.25,524.15,891.25,524.15,891.25z"/>
				<path class="st9" d="M645.59,816.52c0,0-108.98,35.29-121.44,74.73c0,0,0.52,17.65-10.38,37.89c0,0-16.81,25.52-7.23,56.59
					l4.32-1.16c0,0-3.78-30.83,3.35-48.68c0.29-0.66,0.71-1.6,1.24-2.75c1.3-2.55,2.18-4.42,2.73-5.78
					c3.89-7.97,9.48-18.36,13.22-20.53C531.42,906.82,507.02,872.57,645.59,816.52z"/>
			</g>
		</g>
		<path class="st11" d="M459.27,887.58c0,0,64.42-18.4,80.6-0.89c14.17,15.34,52.61,76.04,54.64,111.97
			c1.97,34.91-34.99,57.87-73,57.87h-67.52L459.27,887.58z"/>
		<path class="st12" d="M414.68,905.47c0,0,91.08-41.37,108.33-14.35c9.16,14.35,34.37,71.6,36.23,107.53
			c1.81,34.91-32.18,57.87-67.13,57.87h-62.09L414.68,905.47z"/>
		<path class="st13" d="M235.1,778.19c0,0,113.29-3.07,156.53-2.97c22.25,0.05,21.7,16.89,32.39,36.4
			c21.41,39.08,56.95,106.3,54.13,116.8c-4.03,14.95-155.68,25.31-166.42,21.85C300.99,946.82,235.1,778.19,235.1,778.19z"/>
		<path class="st14" d="M323.81,808.47c0,0,1.53-22.24-3.83-20.32c-5.37,1.92-39.49,32.97-34.12,106.2l15.72,13.42l120-19.94
			L323.81,808.47z"/>
		<path class="st11" d="M476.35,898.6l-40.42,19.97c0,0-34.63-127.34-36.93-137.05c-1.02-4.33-4.18-5.89-7.36-6.3
			c5.6-0.51,9.68-0.55,9.68-0.55c11.03,0,20.83,7.02,24.36,17.46c7.72,22.77,21.93,64.76,36.33,107.52
			c3.76-1.51,8.25-3.24,13.19-5.01L476.35,898.6z"/>
		<path class="st15" d="M395.45,905.49c0,0,130.61-11.57,146.72,3.86c7.48,7.16,11.67,39.58,14.03,72.27
			c2.93,40.77-30.11,75.66-70.75,75.07l-141.6,0.06L395.45,905.49z"/>
		<g>
			<path class="st16" d="M346.57,747.9c-3.74-0.84-7.62,0.13-10.24,1.1c0.47-0.92,1.75-1.59,1.75-1.59
				c-1.73,0.26-4.93,3.03-4.93,3.03c-25.76-1.84-19.02,33.19-16.12,40.93c2.89,7.74,5.72,16.79-3.63,27.37
				c-18.39,20.82,8.13,39.28,8.13,39.28c0.21,0.05,15.93,14.45,15.93,14.45c-2.53-6.19,16.6-48.79,28.86-63.54
				c2.05-6.64,0.42-16.75,0.28-17.54c1.71,7.89,1.71,12.61,1.27,15.41C377.19,790.88,356.48,750.12,346.57,747.9z"/>
			<path class="st17" d="M445.34,809.05c0.38-0.58,3.64-10.54,7.09-10.35c3.45,0.19,8.82,0.77,10.16,0.38
				c1.34-0.38,5.84-3.78,6.61-2.97c1.92,2.01-2.4,8.24-5.46,9.2c-3.07,0.96-8.05-0.48-9.2,0.67c-1.15,1.15-0.96,5.27-0.96,5.27
				L445.34,809.05z"/>
			<g>
				<path class="st17" d="M536.57,1029.67c-0.38,4.07,5.29,5.06,11.85,5.38c6.56,0.33,4.58,1.67,13.56,3.3
					c8.99,1.63,12.59-0.83,13.24-2.05c0.58-1.08-3.6-2.76-8.05-4.67c-0.56-0.24-1.12-0.48-1.68-0.73c-5.01-2.2-7.82-6.7-11.73-10.87
					c-3.7-3.95-7.22-16.59-7.22-16.59l-12.21-2.61c0,0,3.43,11.37,4.62,16.23c0.7,2.86-0.33,6.05-1.25,8.48
					C537.2,1026.89,536.7,1028.24,536.57,1029.67z"/>
				<path class="st18" d="M548.42,1035.06c6.56,0.33,4.58,1.67,13.56,3.3c8.99,1.63,12.59-0.83,13.24-2.05
					c0.58-1.08-3.6-2.76-8.05-4.67l-0.07,0.08c0,0-6.32,2.15-13.61,0.16c-5.95-1.61-11.69-5.17-15.79-6.31
					c-0.49,1.32-0.99,2.68-1.12,4.11C536.2,1033.74,541.86,1034.73,548.42,1035.06z"/>
			</g>
			<path class="st19" d="M414.95,884.85c0,0,81.16-6.11,96.43,3.53c15.28,9.64,39.78,121.96,39.78,121.96s-1.51,1.21-4.89,1.58
				c-3.14,0.34-10.06-1.51-10.06-1.51s-35.22-50.25-37.7-62.91c-2.48-12.66-1.88-23.96-7.52-24.26c-5.65-0.3-76.06,8.56-86.71-10.2
				c-10.65-18.76-1.85-37.34-1.85-37.34L414.95,884.85z"/>
			<path class="st20" d="M453.44,821.1c-5.52,13.97-18.84,36.74-22.29,37.6c-2.9,0.72-17.09-2.51-28.62-6.45
				c-6.75-2.3-12.58-4.85-14.7-6.97c-5.75-5.75-24.68-39.54-24.68-39.54s17.78-2.25,26.21,2.73c8.43,4.98,28.75,27.99,31.82,27.22
				c3.07-0.77,17.64-26.45,23.39-28.75c0,0,8.82-1.92,11.12,4.22C456.27,812.7,455.29,816.4,453.44,821.1z"/>
			<g>
				<path class="st17" d="M505.52,1042.71c-0.38,4.07,5.29,5.06,11.85,5.38c6.56,0.33,4.58,1.67,13.56,3.3
					c8.99,1.63,12.59-0.83,13.24-2.05c0.58-1.08-3.6-2.76-8.05-4.67c-0.56-0.24-1.12-0.48-1.68-0.73c-5.01-2.2-7.82-6.7-11.73-10.87
					c-3.7-3.95-7.22-16.59-7.22-16.59l-12.21-2.61c0,0,3.43,11.37,4.62,16.23c0.7,2.86-0.33,6.05-1.25,8.48
					C506.15,1039.92,505.65,1041.28,505.52,1042.71z"/>
				<path class="st18" d="M517.36,1048.09c6.56,0.33,4.58,1.67,13.56,3.3c8.99,1.63,12.59-0.83,13.24-2.05
					c0.58-1.08-3.6-2.76-8.05-4.67l-0.07,0.08c0,0-6.32,2.15-13.61,0.16c-5.95-1.61-11.69-5.17-15.79-6.32
					c-0.49,1.32-0.99,2.68-1.12,4.11C505.14,1046.78,510.8,1047.77,517.36,1048.09z"/>
			</g>
			<path class="st21" d="M453.44,821.1c-5.52,13.97-18.84,36.74-22.29,37.6c-2.9,0.72-17.09-2.51-28.62-6.45
				c-4.77-4.07-7.7-7.59-8.18-8.31c0.38,0.14,27.25,10.33,32.58,8.05C431.77,849.92,445.44,826.59,453.44,821.1z"/>
			<path class="st17" d="M365.55,809.72c0.09,0.01-6.21,6.18-12.3,6.36c-5.73,0.17-11.29-5.63-11.22-5.67
				c2.11-1.13,1.81-4.41-2.28-17.63l1.07-0.11l18.07-1.83c0,0,1.25,5.48,2.78,10.54C362.95,805.62,364.44,809.56,365.55,809.72z"/>
			<path class="st22" d="M358.89,790.84c0,0,1.25,5.48,2.78,10.54c-9.62,2.64-17.31-4.52-20.85-8.71L358.89,790.84z"/>
			<path class="st18" d="M399.06,889.88c0,0,72.09,3.41,86.99,13.64c14.89,10.23,35,123.41,35,123.41s-1.56,1.15-4.95,1.39
				c-3.15,0.22-9.99-1.9-9.99-1.9s-33.23-51.59-35.22-64.33c-1.99-12.75-0.94-24.01-6.57-24.53c-5.63-0.52-76.33,5.59-86.25-13.57
				C368.16,904.82,399.06,889.88,399.06,889.88z"/>
			<path class="st16" d="M338.49,791.35c0,0-7.41-6.37-10.67-12.75c-2.33-4.56-5.33-23.17,13.41-26.08c0,0,5.37-1.08,11.28,0.74
				c4.7,1.44,12.06,5.41,10.53,22.92l-0.03,5.77L338.49,791.35z"/>
			<path class="st20" d="M399.46,896.01c-0.63,0-1.52-0.04-2.56-0.12c-4.21-0.32-10.93-1.22-13.28-1.92
				c-19.84-5.93-38.89-13.24-47.01-38.92c-0.98-3.11-1.8-6.48-2.45-10.15l3.09-11.79l6.03-24.89c0,0,7.42,3.97,14.32,2.44
				c3.53-0.79,5.54-4.9,5.54-4.9s37.33,14.61,49.99,44.9c12.65,30.29,17,25.69,20.83,32.2C437.8,889.37,420.8,895.89,399.46,896.01z
				"/>
			<path class="st17" d="M363.53,794.65c0,0-22.44,7.26-26.75-6.79c-4.31-14.05-10.1-22.57,4.04-27.8
				c14.15-5.23,18.59-0.73,21.17,3.61C364.57,768.01,369.26,792.4,363.53,794.65z"/>
			<path class="st16" d="M350.99,756.58c0,0-1.14,18.37-9.88,23.7c-8.73,5.33-13.62,4.05-13.62,4.05s5.51-8,3.94-18.54
				C331.43,765.79,343.94,750.16,350.99,756.58z"/>
			<path class="st16" d="M349.87,758.39c0,0,5.74,2.27,7.95,5.51c2.22,3.23,4.97,10.45,7.04,9.54c0,0,1.23-12.63-5.93-17.37
				C351.34,751.04,349.87,758.39,349.87,758.39z"/>
			<path class="st21" d="M396.89,895.89c-4.21-0.32-10.93-1.22-13.28-1.92c-19.84-5.93-38.89-13.24-47.01-38.92
				c-0.03-0.19-0.07-0.38-0.1-0.57l2.75-2.17c5.63-4.43,13.22-5.44,19.82-2.66C374.74,856.27,396.27,868.27,396.89,895.89z"/>
			<path class="st20" d="M343.29,808.21c0,0-23.19,3.48-27.02,18.03c-3.83,14.55-7.24,62.09-3.79,65.84
				c3.45,3.76,13.76-0.6,16.06-2.48c2.3-1.88,14.19-50.22,14.19-50.22S348.53,817.54,343.29,808.21z"/>
			<path class="st17" d="M378.59,875.02c0,0,13.34-2.58,14.84-1.94c1.51,0.65,9.9,8.17,9.03,9.68c-0.86,1.51-4.3,2.58-8.17,1.29
				c-3.87-1.29-12.26-1.94-13.77-3.87C379.02,878.25,378.59,875.02,378.59,875.02z"/>
			<path class="st20" d="M382.17,873.16c0,0-52.06-0.86-64.53,7.31c0,0-7.31,7.53-5.16,11.62c2.15,4.09,8.82,3.44,11.83,3.23
				c3.01-0.22,55.71-12.26,55.71-12.26S386.04,878.53,382.17,873.16z"/>
		</g>
		<path class="st11" d="M337.86,887.58c0,0,59.24-18.4,74.12-0.89c13.04,15.34,48.38,76.04,50.25,111.97
			c1.81,34.91-32.18,57.87-67.13,57.87h-62.09L337.86,887.58z"/>
		<path class="st11" d="M426.96,998.65c-1.86-35.93-27.07-93.18-36.23-107.53c-13.36-20.94-71.03-0.83-96.34,9.3
			c-14.4-42.77-28.61-84.75-36.32-107.52c-3.54-10.44-13.34-17.46-24.36-17.46c0,0-41.16-6.08-47.53,48.76
			c-20.39,175.54-4.01,232.15,69.14,232.58c9.17,0.05,27.1-0.11,42.43-0.28l0,0.03h62.09
			C394.78,1056.52,428.77,1033.57,426.96,998.65z"/>
		<path class="st12" d="M426.96,998.54c-1.86-36.04-27.07-93.45-36.23-107.84c-11.38-17.88-54.85-5.92-83.14,4.29
			c-4.95,1.78-9.43,3.52-13.19,5.03c-14.4-42.89-28.61-85-36.33-107.84c-3.54-10.47-13.34-17.51-24.36-17.51
			c0,0-4.08,0.04-9.68,0.55c0,0,0,0-0.01,0c-9.02,0.82-22,2.88-28.22,7.98c-4.22,3.46-7.12,18.64-9.63,40.37
			c-5.95,51.33-8.76,92.52-7.96,125.13c0.41,16.73,1.77,31.19,4.16,43.61c1.67,8.7,3.83,16.4,6.53,23.16
			c11.67,29.34,33.19,41.16,66.41,41.36c3.86,0.02,9.27,0.01,15.39-0.03c8.42-0.05,18.16-0.15,27.03-0.25l0,0.03h62.09
			C394.78,1056.58,428.77,1033.55,426.96,998.54z"/>
		<path class="st11" d="M293.71,897.62c-9.34,3.67-19.7,7.73-28.08,11.02c-8.19-30.14-32.34-119.08-34.24-127.13
			c-1.02-4.33-4.18-5.89-7.36-6.29c5.6-0.51,9.68-0.55,9.68-0.55c11.02,0,20.82,7.03,24.36,17.46
			C265.66,814.54,279.55,855.56,293.71,897.62z"/>
		<path class="st14" d="M312.78,926.21c-4.38-13.12-31.66-9.02-31.66-9.02s-18.52,22.96-23.91,23.51
			c-5.39,0.55,11.11-22.14,11.11-22.14c-10.44-0.82-37.05,9.57-37.05,9.57s1.69,26.79-3.7,26.25c-5.39-0.55,0-23.78,0-23.78
			c-10.1,2.46-19.53,12.03-19.53,12.03c-11.79,15.58,13.47,27.06,13.47,27.06s0.34,9.29-6.74,19.95c0,0-8.89,10.96-6.04,25.13h-7.82
			c1.5-10.2-4.78-17.94-4.78-17.94c-5.36-8.09-5.11-15.14-5.11-15.14s19.16-8.71,10.22-20.53c0,0-7.15-7.26-14.82-9.12
			c0,0,4.09,17.62,0,18.04c-4.09,0.41-2.81-19.91-2.81-19.91s-2.19-0.86-5.41-1.98c0.41,16.68,1.77,31.1,4.16,43.49
			c2.37-0.95,4.19-2.19,5.09-3.76c0.15-0.27,0.3-0.53,0.44-0.78c-0.21,0.51-0.44,0.78-0.44,0.78c1.84,0.87,4.59,5.02,6.51,8.2
			c0.27,0.54,0.71,1.29,1.34,2.3c0.26,0.46,0.47,0.84,0.61,1.11c2.21,4.48,2.29,11.01,2.05,15.24h-28.41v1.23h1.65
			c0.61,16.34,13.23,30.21,30.93,36.02h-25.53c-3.37,0-6.11,2.22-6.11,4.96h100.32c0-0.34-0.04-0.67-0.12-1
			c-0.57-2.26-3.03-3.96-5.98-3.96h-25.53c17.7-5.8,30.32-19.68,30.93-36.02h1.15v-1.23h-52.73c1.22-2.17,2.71-4.29,4.45-5.84
			c0.2-0.17,0.47-0.39,0.8-0.66c0.86-0.65,1.46-1.13,1.87-1.5c2.65-2.07,6.33-4.71,8.09-4.96c0,0-0.09-0.26-0.07-0.72
			c0.02,0.23,0.05,0.47,0.07,0.72c0.61,5.76,14.38,10.8,22.86,11.83c8.48,1.04,5.86-1.79,2.94-5.99c-2.92-4.19-12.16-6.07-14.27-8
			c-2.11-1.93,2.25-1.94,7.36-0.04c5.11,1.89,5.8,6.94,14,10.12c8.19,3.19,20.52-7.85,20.52-7.85c-6.53-0.27-15.85-6.03-15.52-7.79
			c0.34-1.76,15.83,3.04,18.48,3.27c2.65,0.23,8.67-2.44,9.6-11.1c0.94-8.66-16.55-11.07-16.55-11.07s-4.03,2.43-8.59,4.88
			c-0.9-0.95-2.36-1.99-4.06-3.16c1.5-1.08,2.86-2.01,3.7-2.58c1.68,0.37,3.52,0.66,5.57,0.82c14.14,1.09,24.92-20.5,24.92-20.5
			c-9.76,2.46-27.28-1.91-27.95-4.65c-0.67-2.73,25.26-2.46,29.3-3.28C310.09,945.9,317.16,939.34,312.78,926.21z M226.23,977.88
			c-0.03-0.04-0.32-0.39-0.59-1.02C225.83,977.18,226.02,977.52,226.23,977.88z M223.69,1006.81c0,0-4.64,2.79-7.87,7.96h-3.35
			c-0.41-5.43-0.58-15.12,2.61-21.58c0.19-0.35,0.46-0.84,0.81-1.45c0.42-0.67,0.77-1.25,1.07-1.76c0.29-0.5,0.52-0.93,0.7-1.28
			c2.52-4.2,6.16-9.67,8.58-10.82c0.6,1.04,1.51,1.98,2.66,2.81c-4.6,6.96,4.26,15.35,4.26,15.35S230.83,1001.68,223.69,1006.81z
			 M260.89,972.39c-7.24-1.62-15.98-1.32-19.17-2.71c-4.38-1.92,2.02-3.83,10.78-3.28c5.89,0.37,9.8,3.7,16.04,6.18
			C266.11,972.41,263.43,972.37,260.89,972.39z"/>
		<g>
			<g>
				<path class="st9" d="M217.33,981.9c0,0-12.05-14.05-0.74-22.98c0,0,8.26-5,14.99-4.59c0,0-9.54,16-6.45,17.59
					c3.09,1.59,9.34-18.59,9.34-18.59s18.79-1.82,24.83,1.08c0,0-16.06,13.14-12.68,13.93c3.38,0.78,20.73-12.12,20.73-12.12
					s17.49,2.98,16.55,13.64c-0.93,10.67-6.96,13.96-9.61,13.68c-2.65-0.28-18.14-6.2-18.48-4.03c-0.34,2.17,8.99,9.26,15.52,9.59
					c0,0-12.33,13.6-20.52,9.67c-8.19-3.92-8.89-10.14-14-12.48c-5.11-2.33-9.47-2.33-7.36,0.05c2.11,2.38,11.35,4.69,14.27,9.86
					c2.92,5.17,5.54,8.65-2.94,7.38c-8.48-1.28-22.26-7.48-22.86-14.58C217.33,981.9,217.33,981.9,217.33,981.9z"/>
				<path class="st9" d="M275.31,970.15c0,0-47.49-1.83-57.98,11.75c0,0-2.32,6.95-9.46,13.27c0,0-10.19,7.54-10.9,21.01l1.85,0.17
					c0,0,2.93-12.55,8.26-18.48c0.21-0.21,0.51-0.52,0.88-0.9c0.86-0.8,1.47-1.4,1.88-1.85c2.65-2.55,6.33-5.8,8.09-6.12
					C217.94,989.01,213.33,972.18,275.31,970.15z"/>
			</g>
			<g>
				<path class="st10" d="M175.22,964.23c0,0,19.16-10.73,10.22-25.29c0,0-7.15-8.94-14.82-11.24c0,0,4.09,21.72,0,22.23
					c-4.09,0.51-2.81-24.53-2.81-24.53s-20.18-9.71-28.1-8.94c0,0,12.52,21.2,8.43,20.69c-4.09-0.51-18.14-21.97-18.14-21.97
					s-20.69-3.83-24.02,8.43c-3.32,12.26,2.04,18.39,5.11,19.16c3.07,0.77,22.74,0.51,22.23,3.07c-0.51,2.55-13.8,6.64-21.21,4.34
					c0,0,8.18,20.18,18.91,19.16c10.73-1.02,14.05-7.66,20.69-8.18c6.64-0.51,11.5,1.28,8.18,3.07c-3.32,1.79-14.56,0.59-19.93,5.15
					c-5.37,4.56-9.71,7.37,0.26,9.42c9.96,2.04,27.85,0.77,31.42-6.9C175.22,964.23,175.22,964.23,175.22,964.23z"/>
				<path class="st9" d="M180.33,982.88c-5.37-9.96-5.11-18.65-5.11-18.65c-6.13-19.42-59.78-36.79-59.78-36.79
					c68.21,27.59,56.21,44.45,56.21,44.45c1.84,1.07,4.59,6.19,6.51,10.11c0.27,0.67,0.7,1.59,1.34,2.85l0,0
					c0.26,0.57,0.47,1.03,0.61,1.35c3.51,8.79,1.65,23.96,1.65,23.96l2.13,0.57C188.6,995.45,180.33,982.88,180.33,982.88z"/>
			</g>
			<g>
				<path class="st10" d="M205.7,949.43c0,0-25.26-14.14-13.47-33.34c0,0,9.43-11.79,19.53-14.82c0,0-5.39,28.63,0,29.3
					c5.39,0.67,3.7-32.33,3.7-32.33s26.61-12.8,37.05-11.79c0,0-16.5,27.95-11.11,27.28c5.39-0.67,23.91-28.96,23.91-28.96
					s27.28-5.05,31.66,11.11c4.38,16.16-2.69,24.25-6.74,25.26c-4.04,1.01-29.97,0.67-29.3,4.04c0.67,3.37,18.19,8.76,27.95,5.72
					c0,0-10.78,26.61-24.92,25.26c-14.14-1.35-18.52-10.1-27.28-10.78s-15.15,1.68-10.78,4.04c4.38,2.36,19.2,0.77,26.27,6.78
					c7.07,6.01,12.8,9.72-0.34,12.41c-13.13,2.69-36.71,1.01-41.42-9.09C205.7,949.43,205.7,949.43,205.7,949.43z"/>
				<path class="st9" d="M284.51,900.94c0,0-70.72,22.9-78.8,48.5c0,0,0.34,11.45-6.74,24.58c0,0-10.91,16.56-4.69,36.72l2.81-0.75
					c0,0-2.45-20,2.18-31.59c0.19-0.43,0.46-1.04,0.81-1.79c0.84-1.65,1.41-2.87,1.77-3.75c2.52-5.17,6.15-11.91,8.58-13.33
					C210.42,959.54,194.59,937.31,284.51,900.94z"/>
			</g>
			<path class="st20" d="M155.37,1004.98c0,27.33,22.15,49.48,49.48,49.48c27.32,0,49.48-22.15,49.48-49.48H155.37z"/>
			<path class="st23" d="M217.03,1054.08c-2.01,0.25-4.06,0.38-6.15,0.38c-27.32,0-49.47-22.15-49.47-49.48h12.29
				C173.7,1030.23,192.6,1051.05,217.03,1054.08z"/>
			<path class="st21" d="M248.91,1050.87H160.8c-3.37,0-6.1,2.73-6.1,6.1h100.32C255.01,1053.61,252.28,1050.87,248.91,1050.87z"/>
			<rect x="153.75" y="1004.98" class="st21" width="101.7" height="1.52"/>
		</g>
	</g>
	<g>
		<path class="st11" d="M808.39,903.21v49.51c0,8.7-2.46,15.74-5.5,15.74h-96.96c-3.04,0-5.5-7.04-5.5-15.74v-49.51
			c0-8.7,8.57-16.76,33.7-16.48l68.75,0.74C805.93,887.47,808.39,894.51,808.39,903.21z"/>
		<path class="st13" d="M821.23,903.21v49.51c0,8.7-2.46,15.74-5.5,15.74h-96.96c-3.04,0-5.5-7.04-5.5-15.74v-49.51
			c0-8.7,9.13-17.03,23.09-16.76l79.36,1.02C818.77,887.47,821.23,894.51,821.23,903.21z"/>
		<path class="st11" d="M797.32,843.83c1.32-2.92-0.66-124.8,29.06-123.34c29.72,1.46,85.19,2.92,85.19,2.92s25.09,2.19,9.91,62.03
			c-15.19,59.84-11.89,154.72-11.89,154.72H799.97L797.32,843.83z"/>
		<path class="st13" d="M900.33,785.45c-1.83,7.15-3.35,14.79-4.69,22.7c-5.36,32.04-7.02,68.54-7.42,95.04
			c-0.31,21.89,0.22,36.95,0.22,36.95h-109.6l-2.64-96.33c1.3-2.9-0.67-124.8,29.04-123.32c15.19,0.76,37.13,1.47,54.91,2.06
			c2.23,0.04,4.42,0.13,6.52,0.18c13.76,0.4,23.77,0.67,23.77,0.67S915.52,725.58,900.33,785.45z"/>
		<path class="st12" d="M831.49,1029.93v-64.29c0-2.73-2.28-5-5-5h-0.04c-0.89,0-1.74,0.27-2.46,0.71
			c-1.52,0.85-2.55,2.46-2.55,4.29v64.38c-0.19,0.03-0.39,0.06-0.58,0.1c-14.39,2.23-26.09,12.78-30.03,26.59h71.8
			C858.59,1042.55,846.42,1031.84,831.49,1029.93z"/>
		<path class="st14" d="M895.55,806.23c-2.68-41.11-24.17-76.27-28.86-83.51l-47.09-4.66c0,0-36.3,24.02-27.37,116.45
			c4.61,47.66,24.26,16.45,42.22-24.98l-3.68,89.76c0,0,43.83,2.99,57.46,3.89c0.4-26.5,2.06-63,7.42-95.04
			C895.64,807.52,895.59,806.85,895.55,806.23z"/>
		<path class="st11" d="M823.98,961.35c-1.52,0.85-2.55,2.46-2.55,4.29v78.77c0,1.88,1.03,3.48,2.55,4.29
			c1.47-0.85,2.5-2.46,2.5-4.29v-78.77C826.48,963.81,825.45,962.2,823.98,961.35z"/>
		<path class="st11" d="M820.85,1030.12c-14.39,2.23-26.09,12.78-30.03,26.59h60.05C846.95,1042.9,835.28,1032.35,820.85,1030.12z"
			/>
		<path class="st11" d="M911.15,945.67l-2.48,14.23c0,3.04,0.02,8.56-3.02,8.56H734.97c-3.04,0-5.5-2.46-5.5-5.5v-17.29
			c0-3.04,2.46-5.5,5.5-5.5h170.68C908.7,940.17,911.15,942.63,911.15,945.67z"/>
		<g>
			<path class="st24" d="M705.84,1046.35c0.31,1.52,0.63,3.08,0.54,4.69c-0.22,0.89-0.8,1.56-1.65,2.1l-0.8,1.52
				c-0.85,0.4-2.9,0.71-5.54,0.98l-0.04-1.25c-0.36,0-0.72,0-1.07,0.04v-0.04c-3.13,0.04-7.02,0.31-11.75,2.19
				c-0.04,0-0.09,0.04-0.13,0.04c-0.85,0.04-1.7,0.09-2.46,0.13h-11.53c-5.54-0.8-7.73-3.04-8.13-4.16c0-0.31,4.16-2.37,7.6-3.35
				c0.04,0,0.13-0.04,0.27-0.04c0.49-0.18,1.43-0.54,1.65-0.58c0.63-0.22,1.34-0.4,1.97-0.58c5.76-1.7,9.65-5.54,14.21-9.79
				c5.23-4.87,12.33-26.59,11.39-26.99l11.75,1.52c0,0-9.43,18.86-8.67,24.71c0.31,2.59,1.25,4.78,1.88,7.02
				c0.05,0.09,0.05,0.22,0.09,0.31c0.13,0.31,0.22,0.62,0.31,0.94C705.75,1045.99,705.8,1046.17,705.84,1046.35z"/>
			<path class="st25" d="M853.72,883.28l-50.54-2.07c0,0-76.87,4.96-83.39,16.14l-28.99,135.58c0,0,1.61,2.16,7.05,3.1
				c2.88,0.49,9.15-0.93,9.15-0.93s37.54-48,42.36-78.14c4.03-25.19,5.63-27.82,19.43-27.29c13.81,0.52,56.18,3.86,76.31-0.04
				C865.24,925.72,853.72,883.28,853.72,883.28z"/>
			<g>
				<path class="st26" d="M706.6,1049.79c0,0.45-0.04,0.89-0.22,1.25c-0.22,0.89-0.8,1.56-1.65,2.1c-0.09,0.09-0.18,0.13-0.27,0.18
					c0,0,0,0-0.04,0c-0.04,0.05-0.09,0.05-0.13,0.09c-1.47,0.89-3.44,0.89-5.94,0.98h-1.07c-3.13,0.04-7.02,0.31-11.75,2.19
					c-0.04,0-0.09,0.04-0.13,0.04c-0.13,0.04-0.22,0.09-0.36,0.13h-19.53c-2.68-1.07-3.22-2.77-3.48-3.4
					c-0.22-0.49,0.4-1.03,1.61-1.61c0.09-0.04,0.22-0.09,0.31-0.18c1.7-0.76,4.24-1.56,6.97-2.46c0.04,0.04,0.13,0.04,0.22,0.09
					c1.83,0.63,8.22,2.64,15.73,1.21c6.26-1.21,12.47-4.16,17.25-5.59c0.4-0.09,0.8-0.22,1.21-0.31c0.09-0.04,0.18-0.04,0.27-0.09
					c0.09,0.18,0.13,0.4,0.18,0.58C706.2,1046.53,706.6,1048.13,706.6,1049.79z"/>
				<polygon class="st26" points="704.99,1052.65 704.73,1053.14 703.92,1054.66 702.8,1056.76 697.31,1056.76 697.31,1055.64 
					697.26,1054.43 697.26,1053.9 704.68,1052.69 				"/>
			</g>
			<path class="st17" d="M722.97,1046.35c0.31,1.52,0.63,3.08,0.54,4.69c-0.22,0.89-0.8,1.56-1.65,2.1l-0.8,1.52
				c-0.85,0.4-2.9,0.71-5.54,0.98l-0.04-1.25c-0.36,0-0.71,0-1.07,0.04v-0.04c-3.13,0.04-7.02,0.31-11.75,2.19
				c-0.04,0-0.09,0.04-0.13,0.04c-0.85,0.04-1.7,0.09-2.46,0.13h-11.53c-5.54-0.8-7.73-3.04-8.13-4.16c0-0.31,4.16-2.37,7.6-3.35
				c0.04,0,0.13-0.04,0.27-0.04c0.49-0.18,1.43-0.54,1.65-0.58c0.63-0.22,1.34-0.4,1.97-0.58c5.76-1.7,9.65-5.54,14.21-9.79
				c5.23-4.87,12.33-26.59,11.39-26.99l11.75,1.52c0,0-9.43,18.86-8.67,24.71c0.31,2.59,1.25,4.78,1.88,7.02
				c0.04,0.09,0.04,0.22,0.09,0.31c0.13,0.31,0.22,0.62,0.31,0.94C722.88,1045.99,722.93,1046.17,722.97,1046.35z"/>
			<path class="st27" d="M823.06,757.88l-3.93,15.61l-20.65,81.61c-0.79,1.23-7.37,3.83-14.64,6.27c-8.66,2.9-18.34,5.63-20.17,5.47
				c-3.35-0.27-5.2-7.27-4.25-9.24c0.62-1.3,11.66-7.16,20.3-12.42c4.82-2.93,8.89-5.67,10.01-7.29
				c2.03-3.02,7.08-30.81,11.19-51.15c2.1-10.43,3.97-18.91,5.06-21.13c2.75-5.8,13.46-7.37,16.36-7.67
				C822.79,757.88,823.06,757.88,823.06,757.88z"/>
			<path class="st28" d="M867.09,883.32l-50.54-2.07c0,0-76.87,4.96-83.39,16.14l-26.79,138.26c0,0,4.68,1.6,7.61,1.82
				c4.68,0.35,7.89-1.19,7.89-1.19s36.04-49.14,40.86-79.28c4.03-25.19,5.63-27.82,19.43-27.29c13.81,0.52,56.18,3.86,76.31-0.04
				C878.61,925.77,867.09,883.32,867.09,883.32z"/>
			<g>
				<path class="st27" d="M723.73,1049.79c0,0.45-0.04,0.89-0.22,1.25c-0.22,0.89-0.8,1.56-1.65,2.1c-0.09,0.09-0.18,0.13-0.27,0.18
					c0,0,0,0-0.04,0c-0.04,0.05-0.09,0.05-0.13,0.09c-1.47,0.89-3.44,0.89-5.94,0.98h-1.07c-3.13,0.04-7.02,0.31-11.75,2.19
					c-0.04,0-0.09,0.04-0.13,0.04c-0.13,0.04-0.22,0.09-0.36,0.13h-19.53c-2.68-1.07-3.22-2.77-3.48-3.4
					c-0.22-0.49,0.4-1.03,1.61-1.61c0.09-0.04,0.22-0.09,0.31-0.18c1.7-0.76,4.24-1.56,6.97-2.46c0.05,0.04,0.13,0.04,0.22,0.09
					c1.83,0.63,8.22,2.64,15.73,1.21c6.26-1.21,12.47-4.16,17.25-5.59c0.4-0.09,0.8-0.22,1.21-0.31c0.09-0.04,0.18-0.04,0.27-0.09
					c0.09,0.18,0.13,0.4,0.18,0.58C723.33,1046.53,723.73,1048.13,723.73,1049.79z"/>
				<polygon class="st27" points="722.12,1052.65 721.85,1053.14 721.05,1054.66 719.93,1056.76 714.44,1056.76 714.44,1055.64 
					714.39,1054.43 714.39,1053.9 721.81,1052.69 				"/>
			</g>
			<path class="st29" d="M848.34,735.93c24.24-1.84,28.98-51.59,0.14-45.53c0,0-4.04-2.64-6.04-2.67c0,0,1.54,0.56,2.22,1.53
				c-3.12-0.7-7.95-1.83-11.75,0.33C793.92,711.72,838.95,736.65,848.34,735.93z"/>
			<path class="st17" d="M820.99,762.42c-0.1,0.03,7.97,6.03,14.89,5.29c6.51-0.69,11.89-8.11,11.81-8.14
				c-2.55-0.95-2.73-4.7-0.14-20.28l-1.23,0.04l-20.71,0.72c0,0-0.57,6.39-1.52,12.34C823.29,757.38,822.22,762.07,820.99,762.42z"
				/>
			<path class="st28" d="M819.13,773.49l-20.65,81.61c-0.79,1.23-7.37,3.83-14.64,6.27c-0.62-1.5-1.2-3.23-1.75-5.13
				c-1.1-3.8-1.91-7.51-2.37-11.07c4.82-2.93,8.89-5.67,10.01-7.29c2.03-3.02,7.08-30.81,11.19-51.15c9.26-9.09,18-13.56,18-13.56
				L819.13,773.49z"/>
			<path class="st24" d="M825.61,740.05c0,0-0.57,6.39-1.52,12.34c11.28,1.5,18.88-7.78,22.23-13.06L825.61,740.05z"/>
			<path class="st29" d="M848.75,737.48c0,0,7.39-8.34,10.09-16.07c1.93-5.51,2.45-27.02-19.19-27.42c0,0-6.24-0.39-12.64,2.57
				c-5.09,2.36-12.8,7.98-8.37,27.54l0.92,6.51L848.75,737.48z"/>
			<path class="st17" d="M820.95,745.07c0,0,26.5,4.75,29.2-11.8c2.7-16.55,7.94-27.08-8.86-30.81c-16.8-3.73-21.13,2.05-23.37,7.35
				C815.66,715.12,814.12,743.41,820.95,745.07z"/>
			<path class="st29" d="M829.25,700.1c0,0,4.13,20.6,14.83,25.28c10.7,4.68,16.03,2.47,16.03,2.47s-7.46-8.19-7.31-20.35
				C852.78,707.49,836.23,691.74,829.25,700.1z"/>
			<path class="st29" d="M830.79,701.96c0,0-6.14,3.45-8.14,7.45c-2.01,4-4.01,12.58-6.49,11.87c0,0-3.34-14.09,4.03-20.55
				C828,693.88,830.79,701.96,830.79,701.96z"/>
			<path class="st27" d="M869.18,908.43c-2.11,3.78-6.68,4.08-12.43,2.42c-2.77-0.77-5.78-2.02-8.94-3.49
				c-0.29-0.18-0.63-0.33-0.92-0.47c-9.31-4.54-19.7-11.39-27.82-16.6c-17.02-10.91-18.14-4.8-23.19-10.82c0,0,5.18-5.45-1.47-69.13
				c-1.89-18.23,28.65-52.48,28.65-52.48s0.2,11.3,24.62,1.68c0.87-0.31,7.54,14.08,13.37,31.45c0.95,2.78,1.85,5.6,2.7,8.45
				c4.06,13.47,7.08,27.54,6.26,37.32c-0.2,2.32-0.58,4.43-1.23,6.18c-0.07,0.17-0.15,0.34-0.22,0.51
				C860.19,863.61,875.2,897.55,869.18,908.43z"/>
			<g>
				<polygon class="st30" points="785.17,828.86 740.16,825.65 759.43,878.12 801.58,882.49 				"/>
				<polygon class="st31" points="784.77,829.43 739.76,826.22 759.04,878.69 801.18,883.06 				"/>
				<path class="st32" d="M780.72,828.55c0,0,1.08-6.8-2.75-6.94c-3.83-0.14-6.07,6.5-6.07,6.5L780.72,828.55z"/>
				<path class="st33" d="M773.51,834.7c1.07,4.84,7.26,12.75,6.89,16.76l-28.76-0.37c0,0,0.19-1.86-5.96-15.08
					c-2.53-5.43,0.46-15.26,3.06-15.48l29.22,1.07C777.96,821.6,771.43,825.28,773.51,834.7z"/>
				<polygon class="st30" points="740.16,825.65 739.76,826.22 740.76,826.28 740.67,825.93 				"/>
				<polygon class="st30" points="801.18,883.06 801.58,882.49 800.82,881.9 				"/>
			</g>
			<path class="st28" d="M869.18,908.43c-2.11,3.78-6.68,4.08-12.43,2.42c-2.77-0.77-5.78-2.02-8.94-3.49
				c-11.18-7.24-23.16-18.83-29.88-37.39c-15.1-41.69,42.98-71.88,42.98-71.88l2.86,1.37c4.06,13.47,7.08,27.54,6.26,37.32
				c-0.2,2.32-0.58,4.43-1.23,6.18c-0.07,0.17-0.15,0.34-0.22,0.51C860.19,863.61,875.2,897.55,869.18,908.43z"/>
			<g>
				<g>
					
						<rect x="809.05" y="837.33" transform="matrix(0.8154 0.579 -0.579 0.8154 643.1058 -311.6641)" class="st12" width="2.23" height="30.16"/>
				</g>
				<polygon class="st11" points="800.53,864.06 800.39,866.25 802.35,865.35 				"/>
			</g>
			<path class="st17" d="M823.82,853.46c0,0-7.88-3.27-11.87-2.35c-4,0.92-12.12,3.59-11.77,5.79c0.36,2.2,9.06,4.75,13.15,3.27
				s6.44,1.61,11.27,0.83C829.42,860.21,823.82,853.46,823.82,853.46z"/>
			<path class="st27" d="M847.7,759.57c0,0,24.8,4.21,27.89,10.75c3.09,6.54,1.04,75.04-0.89,82.28
				c-1.93,7.23-41.99,10.64-53.99,10.2c0,0-1.89-8.13,0.36-12.67c2.24-4.54,31.9-9.45,34.33-12.82c2.43-3.38-4.87-45.02-3.92-53.16
				C852.41,775.99,847.7,759.57,847.7,759.57z"/>
			<path class="st17" d="M750.5,856.08c0,0,8.19-0.79,7.08,2.56c-1.11,3.36-4.2,4.98-4.2,4.98S747.05,859.06,750.5,856.08z"/>
		</g>
		<path class="st11" d="M898.31,903.21v49.51c0,8.7-2.46,15.74-5.5,15.74h-96.96c-3.04,0-5.5-7.04-5.5-15.74v-49.51
			c0-8.7,7.73-17.31,34.26-15.74h68.19C895.85,887.47,898.31,894.51,898.31,903.21z"/>
		<path class="st15" d="M911.15,903.21v49.51c0,8.7-2.46,15.74-5.5,15.74H808.7c-3.04,0-5.5-7.04-5.5-15.74v-49.51
			c0-8.7,8.29-16.48,27.84-15.74l69.26-0.46C911.19,887.01,911.15,894.51,911.15,903.21z"/>
	</g>
	<g>
		<path class="st21" d="M942.05,951.76H841.51c-2.39,0-4.35,1.96-4.35,4.35v1.56c0,2.39,1.96,4.35,4.35,4.35h46.37l2.6,79.59
			c-12.82,0.4-23.42,6.76-26.21,15.19h55.01c-2.77-8.36-13.22-14.68-25.9-15.17l2.31-79.61h46.36c2.39,0,4.35-1.96,4.35-4.35v-1.56
			C946.4,953.71,944.44,951.76,942.05,951.76z"/>
		<g>
			<path class="st20" d="M885.46,943.39c-0.64-0.4-1.89-0.24-2.79-0.05v-1.31c0-0.29-0.02-0.57-0.06-0.85h-13.54
				c-0.04,0.28-0.06,0.56-0.06,0.85v2.66c0,3.75,3.07,6.83,6.83,6.83c2.03,0,3.86-0.9,5.12-2.32l0,0c0,0,3.22-0.79,4.23-1.99
				C886.21,946,886.54,944.06,885.46,943.39z M884.75,945.85c-0.34,0.88-1.88,1.36-2.64,1.54c0.3-0.7,0.49-1.45,0.55-2.25
				c0.47-0.64,1.21-1.01,1.75-0.92C884.89,944.32,885.18,944.73,884.75,945.85z"/>
			<path class="st34" d="M870.13,942.04v2.66c0,3.75,3.07,6.83,6.82,6.83c0.31,0,0.62-0.02,0.92-0.07
				c-3.32-0.45-5.91-3.32-5.91-6.76v-2.66c0-0.29,0.02-0.57,0.06-0.85h-1.84C870.15,941.46,870.13,941.75,870.13,942.04z"/>
			<rect x="873.06" y="950.92" class="st20" width="5.57" height="0.83"/>
		</g>
		<g>
			<path class="st20" d="M921.32,943.39c-0.64-0.4-1.89-0.24-2.79-0.05v-1.31c0-0.29-0.02-0.57-0.06-0.85h-13.54
				c-0.04,0.28-0.06,0.56-0.06,0.85v2.66c0,3.75,3.07,6.83,6.83,6.83c2.03,0,3.86-0.9,5.12-2.32l0,0c0,0,3.22-0.79,4.23-1.99
				C922.07,946,922.39,944.06,921.32,943.39z M920.6,945.85c-0.34,0.88-1.88,1.36-2.64,1.54c0.3-0.7,0.49-1.45,0.55-2.25
				c0.47-0.64,1.21-1.01,1.75-0.92C920.74,944.32,921.04,944.73,920.6,945.85z"/>
			<path class="st34" d="M905.99,942.04v2.66c0,3.75,3.07,6.83,6.82,6.83c0.31,0,0.62-0.02,0.92-0.07
				c-3.32-0.45-5.91-3.32-5.91-6.76v-2.66c0-0.29,0.02-0.57,0.06-0.85h-1.84C906.01,941.46,905.99,941.75,905.99,942.04z"/>
			<rect x="908.91" y="950.92" class="st20" width="5.57" height="0.83"/>
		</g>
	</g>
</g>
<path class="st35" d="M-944.81,1264.58h-294.73c-0.18,0-0.33-0.15-0.33-0.33l0,0c0-0.18,0.15-0.33,0.33-0.33h294.73
	c0.18,0,0.33,0.15,0.33,0.33v0C-944.48,1264.43-944.63,1264.58-944.81,1264.58z"/>
<g>
	<path class="st1" d="M645.15,1454.36H434.85c-12.95,0-23.45-10.5-23.45-23.45v9.64c0,12.95,10.5,23.45,23.45,23.45h210.29
		c12.95,0,23.45-10.5,23.45-23.45v-9.64C668.6,1443.86,658.1,1454.36,645.15,1454.36z"/>
	<g>
		<path class="st2" d="M501.35,1374.06c-5.8,0-9.68,4.7-9.68,10.23v0.11c0,5.52,3.99,10.34,9.79,10.34c5.85,0,9.74-4.7,9.74-10.23
			v-0.11C511.19,1378.87,507.2,1374.06,501.35,1374.06z"/>
		<path class="st2" d="M645.15,1315.68H434.85c-12.95,0-23.45,10.5-23.45,23.45v9.64v82.13c0,12.95,10.5,23.45,23.45,23.45h210.29
			c12.95,0,23.45-10.5,23.45-23.45v-82.13v-9.64C668.6,1326.18,658.1,1315.68,645.15,1315.68z M477.82,1403.54h-29.15v-38.29h10.61
			v28.99h18.54V1403.54z M522.02,1384.4c0,10.99-8.86,19.91-20.67,19.91c-11.81,0-20.57-8.81-20.57-19.8v-0.11
			c0-10.99,8.86-19.91,20.67-19.91s20.57,8.81,20.57,19.8V1384.4z M565.62,1398.4c-4.05,3.34-9.68,5.91-16.63,5.91
			c-11.92,0-20.84-8.21-20.84-19.8v-0.11c0-11.16,8.75-19.91,20.62-19.91c6.73,0,11.49,2.08,15.53,5.58l-6.24,7.49
			c-2.73-2.3-5.47-3.61-9.24-3.61c-5.52,0-9.79,4.65-9.79,10.5v0.11c0,6.18,4.32,10.61,10.39,10.61c2.57,0,4.54-0.55,6.13-1.59
			v-4.65h-7.55v-7.77h17.61V1398.4z M584.34,1403.54h-10.67v-38.29h10.67V1403.54z M629.41,1403.54h-9.3l-16.35-21v21h-10.5v-38.29
			h9.9l15.75,20.24v-20.24h10.5V1403.54z"/>
	</g>
</g>
<text transform="matrix(1 0 0 1 448.2389 1545.9619)" class="st2 st36 st37 st7">cadastre-se</text>
</svg>
